<svg xmlns="http://www.w3.org/2000/svg" enable-background="new 0 0 496.4 388.3" viewBox="0 0 496.4 388.3"><path fill="#030303" d="M496.4,359.9c-0.2-1.7-1.2-3.3-2.5-4.4l0,0c-0.2-0.3-0.4-0.5-0.6-0.7c-11.2-8.8-20.8-19.4-28.3-31.4
			c-0.4-0.7-0.7-1.6-1.5-1.9c-0.7,0.7-0.8,1.7-0.4,2.6c0.5,1.3,1.1,2.5,1.7,3.7l0.7,1.3c0.1,0.2,0.2,0.4,0.3,0.6
			c0.1,0.2,0.2,0.4,0.4,0.6c0.5,0.8,0.9,1.6,1.9,2c0.7,0.9,1.5,1.8,2.2,2.7c6.6,8.5,14.2,16.1,22.8,22.6c0.8,0.7,1.3,1.6,1.4,2.6
			c0,1.1-0.4,2.1-1.1,2.9c-2.5-0.6-5-0.4-7.5-0.8c-13.5-2.2-25.7-8.1-37.7-14.4c-5.2-2.7-9.6-6.6-14.6-9.5c-0.2-0.1-0.4-0.3-0.7-0.4
			s-0.4-0.3-0.6-0.4c-1.7-1.2-3.4-2.1-5.4-0.5c-0.4,0.3-0.8,0.7-1.1,1.1c-6.9,8.1-16,12.1-26.2,13.7c-7.1,0.9-14.2,1-21.3,0.1
			c-11.6-1.1-22.9-3.7-33.9-7.6c-1.2-0.4-2.5-0.4-3.7,0c-6.1,2.2-12.6,2-18.8,1.3c-10-1.2-19.6-4.6-28.1-9.8
			c-13.9-8.1-23.4-20.1-29.6-34.8c-3.9-9.3-5.5-19.3-4.8-29.3c0.8-9.8,3.3-19.4,7.4-28.4c4.2-9.8,9.3-19,16-27.3
			c4.5-5.5,9.5-10.6,14.3-15.9c5.6-6.1,10.3-13,15.2-19.7c2.1-3,2.2-2.9,5.2-1c4.3,2.9,9,5.1,14,6.5c3,0.8,6,1.2,9,1.8
			c4.2,0.8,6.1,4.4,4.6,8.3s-3.4,7.6-5,11.4c-5,11.4-10.3,22.7-16.9,33.3c-2.5,4-2.6,7.7,0.1,11.7c2.5,3.6,4.4,7.4,5.9,11.5
			c1.5,4.2,3.8,4.6,6.5,1.6c3.4-4,7.1-7.7,11.1-11.1c3.2-2.6,5.1-5.4,4.3-9.4c-0.1-0.7-0.2-1.4-0.2-2.2c-0.4-12.2,0.2-24.4,1.5-36.5
			c0.8-6.3,1.3-12.6,6.3-17.3c0.4-0.4,0.7-0.9,1-1.4c1.1-2.4,3.1-3.2,5.6-3.5c13.3-1.8,25.5-6.2,35.7-15.2c0.5-0.4,0.9-1,1.9-1
			c0.6,4.3,1.5,8.6,2.7,12.8c2.9,9.1,6.6,17.8,10.1,26.6c4.4,10.9,9.5,21.4,15.5,31.4c5.3,9.1,10.6,18.1,15.6,27.4
			c0.7,2,1.7,3.9,2.8,5.6c0.5,0.8,1.4,2.2,2.2,0.1c-0.2-1.2-0.5-2.3-1-3.4c-2.3-5.9-5.6-11.2-8.7-16.6c-5.3-9.4-11-18.6-15.9-28.3
			c-6.1-12.1-10.8-24.8-15.7-37.4c-2.1-5.2-3.6-10.6-4.3-16.1c-0.6-5.4-1.1-10.8-1.6-16.1c-1.3-1.1-2.4-0.2-3.4,0.5
			c-4,2.6-7.8,5.4-11.9,7.8c-11.7,6.6-23.8,11.5-37.5,12.2c-9.4,0.4-18.1-2-26.6-5.4c-1.6-0.7-2.9-2.1-4.7-2.4
			c-0.5-0.1-1.1,0-1.6,0.1c-1.6,0.5-2.1,2.1-3,3.3c-2.1,3.3-4.5,6.3-6.8,9.5c-6.2,8.6-12.5,17.2-20.1,24.7c-3.2,3.1-6,6.6-8.9,10.1
			c-4.8,5.7-8.3,12.3-12,18.7c-1.4,2.7-2.8,5.3-3.9,8.1c-0.6,1.5-2.1,2.6-3.8,2.6c-12.4,0.3-24.9,1.1-37.3,1c-7-0.1-14,0.6-21.1,0.7
			c-4.1,0.1-8.3,0.1-12.4,0.5c-8.7,0.8-17.4,0.9-26.1,1.3c-8.2,0.4-16.4,0.3-24.6,0.4c-20.7,0.3-41.3,0.2-61.9,1.2
			c-5.2,0.2-10.3-0.4-15.5-0.5c-16.6-0.5-33.1,1.8-49.7,2.4c-2.6,0.1-2.9-0.1-3.2-2.4c-1.6-15.7-1.6-31.4-2-47.2
			c-0.4-14.9,0.3-29.8,0.1-44.7c-0.2-11.5-0.6-23-0.6-34.5c0-3.6,0-7.1-0.4-10.7c-0.4-3.8-0.1-7.6-0.1-11.4c0-1.3,0.3-2.2,2-2.2
			c9.2,0.4,18.4,0.3,27.5-0.3c5.4-0.3,10.8,0,16.2,0c9.8,0,19.6,0.2,29.4-0.4c10-0.6,20.1-0.1,30.2-0.5c11.3-0.5,22.7-0.5,34-1
			c10.9-0.5,21.8-0.8,32.7-1c11.4-0.3,22.9-0.3,34.4,0.1c14.8,0.7,29.6,0.4,44.4-0.8c9.8-0.8,19.6-0.9,29.3-1.5
			c11.2-0.7,22.3,1,33.5,1.5c1.8,0.1,2.4,1,2.2,2.7c-0.8,6.8-0.2,13.7-0.4,20.6c0,0.8-0.1,1.7-0.1,2.5c-0.6,8.5-1.1,17-1.4,25.6
			c0.3,1.2-0.3,2.6,1.1,3.4c0.8-0.4,1.3-1.1,1.5-1.9c1.3-3.7,2.5-7.4,2.4-11.4c-0.2-1.6-0.1-3.2,0.3-4.8c0.2-2.7-0.9-5.4-0.1-8.1
			c0.2-6,0.3-12,0.5-18c0.1-4,0.4-8,0-11.9c-0.6-6.1-0.8-12.2-0.9-18.3c0-3.8,0-7.6,0-11.4c0-1.1,0-2.2,0-3.3
			c-0.1-2.6-1-3.4-3.5-3.4c-3.9,0.1-3.9,0.1-4-3.7c-0.2-3.6-1.2-7.1-2.9-10.2c-2.2-4-6.3-4.7-9.9-2c-2.3,1.7-3.9,4.1-4.6,6.8
			c-0.6,2.2-0.9,4.5-0.8,6.8c0.1,1.7,0.1,1.7-1.8,1.8h-0.5c-3.7,0-3.8,0-3.9-3.8c-0.1-4-1.4-7.9-3.5-11.2c-2.5-3.9-7.3-4.5-10.4-1
			c-1.5,1.7-2.5,3.7-2.9,5.8c-0.7,2.9-0.9,5.9-0.6,8.8c0.1,1-0.3,1.4-1.2,1.3c-0.4,0-0.9,0-1.3,0c-3.8,0-3.8,0-4.5-3.7
			c-0.6-3.6-1.9-7.1-3.7-10.3c-3-5.1-8.6-3.7-10.8,0.3c-1.8,3.2-2.7,6.8-2.6,10.4c0.1,1.3,0.1,2.5,0.2,3.9c-2.6,0.1-5,0.2-7.4,0.3
			c-1,0-1-0.6-1.1-1.3c-0.1-1.8-0.3-3.7-0.5-5.6c-0.3-2.5-1.2-4.9-2.7-7c-2.5-3.4-6.4-3.8-9.6-1.2c-1.5,1.4-2.7,3.2-3.3,5.2
			c-0.6,1.9-0.9,3.9-1.1,5.9c-0.1,1.2,0.6,2.9-0.4,3.6s-2.6,0.1-3.9,0.2c-0.9,0.1-1.4-0.2-1.4-1.2c-0.1-1.4-0.2-2.7-0.4-4
			c-0.5-3.6-1.7-6.9-4.6-9.3c-2.5-2.2-6.3-2-8.5,0.5c-0.2,0.2-0.3,0.4-0.5,0.6c-2.3,3.2-2.9,7-3.1,10.8c-0.1,2.6-0.1,2.7-2.8,2.5
			h-0.3c-1.1,0.1-1.5-0.5-1.5-1.5c0-0.4,0-0.8-0.1-1.3c-0.5-3.6-1.2-7.2-3.5-10.2c-2.7-3.5-7.6-4.1-11.1-1.4
			c-0.7,0.5-1.3,1.1-1.7,1.9c-1.8,2.8-2.9,6.1-3.1,9.5c-0.3,3.2-0.2,3.2-3.5,3.2c-1.8,0-1.9,0-2-1.9c-0.5-4.7-2.6-9.1-6-12.4
			c-2.3-2.4-6.1-2.4-8.5-0.1c-1.2,1.3-2.1,2.8-2.7,4.5c-1.1,2.6-1.6,5.3-1.7,8.1c0,1.3-0.5,1.7-1.8,1.7c-1.3-0.1-2.6-0.1-3.8,0
			c-1.1,0.1-1.4-0.4-1.4-1.4c-0.1-3.1-0.5-6.2-1.4-9.3c-0.7-3.2-3.5-5.5-6.7-5.6c-3.6-0.4-5.7,0.8-7.6,4.3
			c-1.6,3.3-2.5,6.9-2.6,10.5c-0.1,2,0.2,2.1-2.1,2.1c-3.8,0-3.8,0.1-4-3.9c-0.1-3.1-0.8-6.2-2.2-9c-2.8-5.3-8.8-5.9-12.8-1.3
			c-2.7,3.2-3.7,7-3.9,11.1c-0.1,1.9-1.7,3.5-3.7,3.4c-2.4,0-2.3,0.2-2.4-2.3c-0.1-4.1-1.1-8.1-2.8-11.8c-1-2.2-2.4-3.9-5-4.2
			c-3.5-0.6-7.1,1-9,4c-1.9,3-2.9,6.6-2.7,10.1c0,3.5,0,3.4-3.4,3.4c-1.2,0-1.7-0.2-1.8-1.6c-0.4-3.6-1.4-7.2-3-10.4
			c-2.6-5.6-7.1-4.9-10.5-2.6c-0.8,0.6-1.5,1.3-2.1,2.1c-2.7,3.2-3.3,7-3.2,11c0,1.9,0.1,1.9-1.8,2s-1.8,0.1-2.1-1.8
			c-0.3-2.8-0.9-5.5-1.8-8.2c-0.7-2-2-3.7-3.7-5c-3.2-2.4-7.7-1.7-10.1,1.4c-1,1.3-1.7,2.8-2.1,4.4c-0.7,2.7-1,5.5-1,8.3
			c0,1.7,0,1.6-1.7,1.7c-1.3,0.1-1.6-0.5-1.8-1.6c-0.5-3.2-1.3-6.4-2.5-9.4c-0.8-2.2-2.2-4.1-4.1-5.5c-2.8-2-4.3-1.7-6.7,1.3
			c-1.5,1.9-2.5,4-3.1,6.4c-0.6,2.4-0.8,4.8-0.7,7.2c0.1,1.3-0.4,1.6-1.6,1.5c-1.7-0.2-3.4-0.3-5.1-0.5c-2.9-0.2-3.8,1-4,4.8
			c-0.1,1.2-0.1,2.3,0,3.5c0.2,2.4,0.2,4.9,0.2,7.3c-0.1,5.6,0.1,11.2,0.7,16.7c0.3,3.1,0.3,6.2,0.3,9.3c0.1,20.8,0.8,41.5,1.1,62.2
			c0.1,7.4-0.3,14.7-0.2,22.1c0.1,15.1,0.1,30.2,0.8,45.2c0.3,7.3,0.9,14.5,1.4,21.8c0.2,2.5,1.6,3.8,4.1,4.1
			c1.1,0.1,2.2,0.1,3.3-0.1c1.2-0.1,2.4-0.3,3.7-0.3c8.1-0.3,16.3-0.5,24.4-1.4c7.3-0.7,14.5-0.9,21.8-0.6
			c6.3,0.2,12.5,0.5,18.8,0.3c8.8-0.3,17.7-0.6,26.5-0.8c17.2-0.3,34.5-0.4,51.7-0.6c16.3-0.1,32.5-1.6,48.7-2
			c15.8-0.4,31.5-0.9,47.2-1.3c2.3-0.1,4.6,0,6.9,0c0.2,0.9-0.4,1.7-0.7,2.5c-4,12.1-5.7,24.3-3.5,37c3.4,19.4,13.2,34.7,28.5,46.8
			c3.5,2.8,7.5,4.6,11.3,6.8c2,2.5,5,3,7.7,4c11.7,4.2,23.6,6.5,35.9,3.2c1-0.4,2.2-0.4,3.2,0c3.6,1.3,7.3,2.4,11.1,3.1
			c1.1,0.3,2.1,0.7,3.2,0.9c5.3,1.3,10.6,2.2,15.9,3c6.2,0.7,12.4,1.8,18.7,0.6c1.1-0.3,2.3-0.5,3.5-0.5c7.5,0.5,14.2-2,20.5-5.5
			c3.1-1.8,6.5-3.4,8.3-6.8c0.9-1.1,1.9-2.1,2.8-3.3c0.5-0.7,1-1,1.8-0.4c1.6,1.1,3.4,1.9,4.9,3.1c7.9,6.3,16.8,10.9,26,15
			c9.7,4.3,19.5,7.9,30.1,8.3c1.9,0.1,3.7-1,4.5-2.7C496,362,496.3,361,496.4,359.9z M305.3,42.8c2.4-2,4.3-1.6,5.7,1.2
			c1.6,3.1,2.4,6.5,2.3,10c-0.1,1.8-0.1,1.8-1.9,1.8h-3.8v-0.3h-4.8c-0.6,0-1-0.2-1.1-0.8C301.4,50.3,301.5,46,305.3,42.8z
			 M279,44.2c0.3-1,0.9-1.8,1.5-2.6c1.8-2.1,3.9-2,5.4,0.3c1.9,2.8,2.9,6.1,3.1,9.5c0.2,3.8,0.2,3.8-3.7,3.8h-1.8l0,0
			c-1.3,0-2.7,0-4,0c-1,0-1.5-0.3-1.6-1.4C277.6,50.6,278,47.3,279,44.2z M256.1,43.2c0.2-0.4,0.5-0.7,0.8-1c0.9-1,2.4-1.1,3.4-0.3
			c0.2,0.2,0.4,0.4,0.5,0.6c1.2,1.6,2.1,3.5,2.6,5.5c0.6,2.3,1.1,4.8,1.7,7.5c-3.6,0.2-6.9,0.4-10.2,0.5c-0.6,0-1-0.2-1-0.8
			C253.6,51,253.7,46.8,256.1,43.2L256.1,43.2z M229.6,46.5c0.2-0.6,0.5-1.1,0.8-1.5c2.2-3,5-2.8,6.8,0.5s1.7,6.8,2,10.3
			c0.1,0.9-0.5,0.9-1.1,0.9h-4.3v-0.1c-1.4,0-2.9,0-4.3,0c-1,0-1.3-0.4-1.3-1.4C228.1,52.2,228.6,49.3,229.6,46.5L229.6,46.5z
			 M207.8,44.9c1.4-2.2,2.7-2.3,4.7-0.5c2.1,1.9,2.8,4.5,3.2,7.2c0.2,1.1,0.1,2.2,0.3,3.3s-0.4,1.5-1.4,1.4c-1.3,0-2.5,0-3.8,0l0,0
			h-4.3c-0.7,0-1.2-0.2-1.2-1C205.4,51.7,205.6,48,207.8,44.9L207.8,44.9z M184,45c1.5-2,4.3-2.4,6.3-1c0.3,0.2,0.5,0.4,0.7,0.7
			c2.5,3,3,6.7,3.3,10.4c0.1,0.9-0.6,0.8-1.2,0.8h-5.5v0.1c-1.8,0-3.6,0-5.3,0c-0.7,0-1.1-0.3-1.1-1C181,51.5,182,48,184,45z
			 M156.8,54.7c0.1-3.1,0.9-6.2,2.4-8.9c0.3-0.5,0.6-1,1-1.4c1.5-1.6,2.5-1.6,4,0c2.8,2.7,4.6,6.3,5,10.2c0.1,1.8,0.2,1.8-1.7,1.8
			H163v-0.2c-1.6,0-3.2,0-4.8,0C157,56.2,156.7,55.7,156.8,54.7z M134.2,45c0.7-1.4,2.2-2.2,3.8-2c1.7,0.3,3.3,0.8,4,2.6
			c1,3.1,1.5,6.4,1.5,9.7c0.1,1-0.6,1.1-1.3,1.1h-5.1v0.3c-1.5,0-3,0-4.6,0c-0.7,0-1.1-0.3-1-1.1C131.8,51.9,132.2,48.3,134.2,45z
			 M109.5,45c2.6-3.4,6.1-3,7.9,0.8c1.5,3.2,1.7,6.7,1.8,10.1c0,1-0.6,1-1.3,1c-1.7-0.2-3.3-0.2-5,0c-1.7,0-3.4,0-5.1,0
			c-0.8,0-1.2-0.3-1.2-1.2C106.7,51.9,107.1,48.1,109.5,45L109.5,45z M83.1,44.9c1-1.7,2.8-2.8,4.7-2.9c1.5-0.2,2.9,0.6,3.5,1.9
			c1.8,3.7,2.8,7.8,2.9,11.9c0,1-0.5,1.1-1.3,1.1c-1.7,0-3.4,0-5,0v-0.2c-1.8,0-3.5,0-5.3,0c-0.7,0-1.4,0-1.5-1
			C80.9,51.9,81,48.2,83.1,44.9L83.1,44.9z M59.5,45.9c0.6-0.8,1.4-1.5,2.3-1.9c2.1-1,3.5-0.7,4.6,1.4c1.5,3,2.4,6.1,2.9,9.4
			c0.2,1.1,0,1.7-1.4,1.7c-3.6-0.2-7.2-0.1-10.8,0.1c-0.4-4-0.2-7.6,2.3-10.8L59.5,45.9z M35.8,47.1c0.7-1.8,1.8-3.4,3.9-3.6
			s3.7,1.2,4.7,3c1.6,3,2,6.4,2.4,9.8c0.1,0.7-0.4,0.8-0.9,0.8h-5.3v0.2c-1.6,0-3.2,0-4.8,0c-0.8,0-1.2-0.3-1.2-1.2
			C34.4,53.1,34.8,50,35.8,47.1z M17.1,44.4c1.1-1.3,1.3-1.3,2.6-0.3c0.7,0.6,1.3,1.3,1.8,2.1c1.7,3.6,2.8,7.4,3.3,11.4
			c-3.3,0.2-6.7,0.3-10,0.1c-0.6,0-0.9-0.3-0.9-0.9C13.9,52.4,14.2,48,17.1,44.4z"/><path fill="#fff" d="M494.3,362.4c-0.3,0.5-0.7,0.8-1.3,0.9c-2.4,0.2-4.9,0.1-7.2-0.4c-8.1-1.1-15.7-4-23.1-7.2
			c-9.4-4.1-18.5-8.8-26.6-15.1c-1-0.8-2.1-1.4-3.2-2.1c-0.2,0-0.3-0.1-0.4-0.3h-0.1c0.4-1.4,1.5-1,2.5-1c9.6,0.9,19.3,0.2,28.7-1.9
			c1.4-0.3,3.1-0.4,3.5-2.4c0.1-0.4,0.3-0.8,0.6-1c1.4-0.3,1.9,0.9,2.5,1.7c3.8,4.9,7.9,9.5,12.3,13.8c3,2.9,6.3,5.6,9.5,8.3
			c0.8,0.6,1.5,1.4,2,2.3C495,359.3,495.2,361,494.3,362.4z"/><path fill="#ffd574" d="M463.4,321.4c-0.4,1.4,0.3,2.5,0.8,3.8c0.4,0.9,0.8,1.8,1.2,2.7c0.3,0.4,0.1,0.9,0.6,1.2v0
			c0.1,0.2,0.2,0.4,0.2,0.6c0.5,1,0.9,2,1.3,3c0.6,1.9,0.6,2.1-0.9,2.7c-1.4,0.5-2.9,0.8-4.4,1c-2.8,0.5-5.6,1.1-8.5,1.4
			c-6.4,0.7-12.9,0.7-19.4,0.1c-0.6-0.1-1.4-0.3-1.9,0.4c-0.6-0.1-1.1-0.4-1.5-0.8c-1-0.9-2.4-0.9-3.5-0.2
			c-6.1-0.9-12.1-2.8-17.6-5.5c-12.2-5.7-22-14.5-30.2-25c-5.7-7.3-10.7-15-13.9-23.8c-1.8-4.8-2.5-9.8-3.1-14.9
			c-0.6-6-0.4-12,0.7-17.9c1.1-7.7,4.8-14.8,10.5-20.1c5.1-4.7,11-5.8,17.7-3.8c7.5,2.3,14.2,6.4,20.9,10.4
			c11.6,7,21.5,16.1,31.4,25.3c1.3,1.3,2.5,2.7,3.6,4.3c0.7,1.5,1.3,3,2.1,4.4c0.3,0.6,0.7,1.1,1.2,1.6c0.6,0.7,0.8-0.1,1.1-0.4
			c1.3,3,3.1,5.6,4.3,8.6c2.4,5.6,3.9,11.5,4.5,17.6c0.6,6.5,1.1,13.1,2,19.6C462.5,318.9,462.8,320.2,463.4,321.4z"/><path fill="#e1f0ff" d="M297.1,340.9c7.1,3.5,14.7,5.9,22.5,7.2c7.2,1.2,14.5,1.2,21.5-1c1.1-0.4,2.4-0.3,3.3,0.4
			c0,1.2-0.9,1.8-1.7,2.4c-3.3,2.6-7.1,4.3-11.2,5.1c-6.5,1.3-13,2.4-19.5,3.3c-4.9,0.7-9.7,1.7-13.7,4.9c-1.1,0.9-2.8,1.8-1.9,3.4
			s2.6,1,3.9,0.5c5.1-1.7,10.1-4,15.4-5.2c1.1-0.3,2.3-0.5,3.5-0.7c0.6-0.1,1.3-0.2,1.6,0.4c0.3,0.8-0.4,1.2-0.9,1.6
			c-0.7,0.5-1.5,0.9-2.2,1.2c-2.6,1.3-4.9,3-7,5c-0.9,0.9-2.3,2-1.3,3.4c0.9,1.3,2.3,0.5,3.5,0.1c4.9-1.8,9.2-4.7,13.6-7.4
			c1.4-0.9,2.7-2.1,4.5-2.3c0.4,0,0.7,0.2,0.9,0.6c-0.5,1.9-2.2,3-3.1,4.6c-0.6,1.1-1.9,2.6-0.8,3.6s2.7-0.2,3.8-1.1
			c1.4-1.1,2.6-2.4,3.8-3.7c6-6.2,12.5-11.9,19.6-16.8c5,1.2,10.1,2.4,15.2,3.2c1.2,0.2,2.5,0,3.7,0.7c-1,1.5-2.8,1.8-4.3,2.4
			c-2.9,1.4-5.6,3.1-8.1,5.1c-0.7,0.6-2,1.3-1.2,2.4c0.6,1,1.7,0.2,2.5-0.1c2.8-0.9,5.5-2.1,8.1-3.5c0.6-0.4,1.3-0.7,2-1
			c0.8-0.3,1.7-1,2.3-0.1s-0.5,1.5-1,2.1c-0.6,0.7-1.3,1.3-2.1,1.9c-3.5,3-7,5.9-10.3,9c-0.9,0.9-2.5,2.2-1.6,3.3
			c1.2,1.4,2.6-0.2,3.7-1c5-3.6,10-7.2,14.9-11c0.7-0.5,1.2-1.2,2.2-1.2c0.4,0.1,0.7,0.4,0.7,0.8c-0.4,2.4-2.2,3.9-3.2,6
			c-0.6,1.1-1.2,2.2-1.6,3.4c-0.2,0.6-0.3,1.2,0.2,1.7s1.3,0.3,1.9,0c0.8-0.5,1.5-1,2.1-1.7c3.1-3.1,6.3-6.1,9.3-9.3
			c1.9-2,4.1-3.1,7-2.4c1.9,0.4,3.9,0.4,5.8-0.1c0.8-0.2,1.9-0.4,1.9-1.4s-1.2-1-2-1c-2.8-0.3-5.5-1-8.1-2.1c-0.8-0.3-1.9-0.4-2-1.6
			c2-0.8,4-0.5,6-0.5c1.3,0,2.5-0.1,3.8-0.3c8.3-1.7,16-5.6,22.3-11.3c0,0.7,0.3,1.5,0.8,2c1,1.3,1.9,2.6,2.8,3.9
			c4,5.9,3.1,11.7-0.4,17.4c-2.9,4.5-7,7.7-11.8,10.1c-9.8,5-20.2,8.6-31.1,10.5c-4.1,0.8-8.2,1.2-12.3,1.2c-1.8,0-3.5,0.3-5.3,0.2
			c-6.4-0.2-12.8,0.1-19.2-0.4c-3.6-0.3-7.2-0.1-10.8-0.7c-2.6-0.5-5.4-0.3-8.1-0.6c-4.7-0.4-9.4-1-14.1-1.4
			c-3.6-0.4-7.2-0.8-10.8-1.2c-9-0.9-18.1-2-26.6-5.6c-2.7-1.1-5.3-2.6-7.7-4.4c-4-3.1-5.7-9.6-3.5-14.7c2.5-5.5,6.7-9.3,11.8-12.2
			c4.7-2.6,9.9-4.4,15.2-5.3C295.2,341.6,296.2,341.4,297.1,340.9z"/><path fill="#ffd574" d="M404.3,153.8c-1.3-0.4-2.3,0.4-3.2,1.1c-3.6,2.5-7.3,5-11,7.3c-10.4,6.6-21.9,10-33.8,12.8
			c-2,0.5-4-0.3-6-0.2c-8.8,0.5-17-2-25.2-5.1c-1.8-0.7-3.2-2.3-5.1-2.8c-1.1-0.2-1.8-0.8-1.3-1.9c1.3-2.9,0.9-5.9,0.5-9
			c0-0.5,0-1,0-1.6c0-0.8-0.1-1.5-0.3-2.3c-0.2-0.8-0.2-1.5,0-2.3c0.2-0.8,0.7-1.4,1.4-1.8c2.1-4.7,3.2-9.8,3.2-14.9
			c-0.1-0.9,0-1.9,0.3-2.7c0.8-0.9,0.2-2.3,1.1-3.1c0.5-2.3,1.1-4.6,1.5-6.9c0.7-3.5,1.8-6.9,3.3-10.1c2.6-6.4,7.6-9.9,13.7-12.4
			c5.8-2.4,11.6-1.8,17.3,0.3c0.9,0.3,1.7,0.7,2.6,1c1.7,0.7,3.6-0.2,4.2-1.9c0.2-0.5,0.3-1,0.2-1.5c0-0.3,0-0.7-0.1-1
			c0-0.7-0.2-1.5,0.6-1.7s1.3,0.3,1.8,0.8c0.9,1,1.7,2.2,2.1,3.5c0.2,0.4,0,1,0.6,1.4c0.8-0.1,1.4-0.5,2-1c1.5-0.9,3.2-1.5,5-1.8
			c0.6-0.1,1.2,0,1.7,0.3c1,0.5,1.2,1.1,0.4,2c-0.7,0.7-1.5,1.4-2.3,2c-0.6,0.4-1.1,0.9-1.5,1.4c-0.6,0.5-0.7,1.5-0.2,2.1
			c0.1,0.1,0.2,0.2,0.3,0.3c0.7,0.6,1.3,1.3,2,2c3,2.8,5.5,6.2,7.3,10c3.9,8.3,8.8,16,13,24.1c0.7,1.1,1.6,2.2,2.6,3.1
			c1.6,1.8,1.5,2.1-0.8,3.3C403.3,148.9,404.4,151.2,404.3,153.8z"/><path fill="#010101" d="M242.1,333.7l-2.8-0.9c-11.3-3.5-20.9-9.8-29.5-17.8c-7.9-7.2-15.1-15.1-21.4-23.6c-0.4-0.5-0.7-0.9-1-1.5
			c-0.4-0.6-0.3-1.4,0.2-1.9c0.5-0.5,1.4-0.4,1.9,0.1c1,0.9,1.9,1.9,2.7,3c2.7,3.4,5.4,6.8,8.3,9.9c6.5,7.3,13.8,14,21.7,19.8
			c6.1,4.4,12.9,7.3,20,9.7c0.3,0.1,0.7,0.2,1,0.3c0.8,0.3,1.3,0.8,1.1,1.7S243.3,333.7,242.1,333.7z"/><path fill="#020202" d="M306.5,11.1c1,0.1,2,0.2,3.1,0.4c7.3,1.6,14.3,4.2,20.8,7.9c0.7,0.4,1.3,0.8,1.9,1.3c0.7,0.4,0.9,1.3,0.5,2
			c-0.5,0.8-1.3,0.7-2,0.4c-0.8-0.3-1.5-0.7-2.3-1.1c-5.7-3.1-11.8-5.5-18.1-7.1c-2.1-0.6-4.3-1.2-6.5-0.5c-0.7,0.3-1.5,0-1.9-0.7
			c-0.1-0.1-0.1-0.2-0.1-0.3c-0.2-0.9,0.4-1.4,1.2-1.7C304.1,11.2,305.3,11,306.5,11.1z"/><path fill="#040404" d="M401.6 84.1c.1 3.1.3 6.3.5 9.4.1 1.3 0 2.7-.3 4-.1.7-.7 1.2-1.4 1.3-.9 0-1.3-.6-1.5-1.4 0-.3 0-.5 0-.8-.1-7.8-.6-15.6-.1-23.4-.1-.7.1-1.4.4-2 .3-.6.9-.9 1.5-.8.6.1 1.1.6 1.1 1.2 0 .6 0 1.2 0 1.8C401.5 76.9 401.5 80.5 401.6 84.1zM407.1 79.9c.1-2.8.3-6.1.4-9.4.1-1.7.5-2.5 1.5-2.5s1.5.8 1.5 2.5c-.2 6.4-.3 12.8-.9 19.2 0 .6-.1 1.2-.3 1.8-.2.7-.8 1.2-1.5 1.1-.7-.1-1.3-.6-1.3-1.4 0-.8 0-1.7 0-2.5C406.7 85.9 406.9 83.1 407.1 79.9z"/><path fill="#030202" d="M323.3,0c0.5,0.2,1,0.4,1.5,0.6c6,3.2,10.6,8,14.7,13.4c0.5,0.7,0.8,1.6,0.1,2.3c-0.7,0.7-1.8,0.4-2.5-0.4
			c-0.5-0.5-1-1.2-1.5-1.8C332,9.8,328.1,5.7,323,3c-0.4-0.2-0.7-0.4-1-0.7c-0.4-0.4-0.5-0.9-0.3-1.4C322,0.3,322.6-0.1,323.3,0z"/><path fill="#030303" d="M204.9,286.4c0.8,0.1,1.6,0.6,2,1.4c1.5,1.9,2.9,3.8,4.4,5.6c1.9,2.5,4.1,4.8,6.4,6.8
			c0.7,0.6,1.3,1.3,0.6,2.1s-1.6,0.7-2.5,0.1c-0.6-0.4-1.1-0.8-1.6-1.3c-3.7-3.6-7.1-7.5-10.1-11.7c-0.4-0.4-0.7-1-0.7-1.6
			c-0.1-0.7,0.4-1.3,1.1-1.4C204.7,286.4,204.8,286.4,204.9,286.4z"/><path fill="#161212" d="M410.5,101.7c-0.1,1-1,1.7-2,1.7c-0.7,0-1.3-0.6-1.2-1.3c0-0.9,0.8-1.7,1.7-1.7c0,0,0.1,0,0.1,0
			C409.8,100.3,410.5,100.9,410.5,101.7C410.5,101.7,410.5,101.7,410.5,101.7z"/><path fill="#ffd574" d="M325,127.3c-0.1,1.1-0.3,2.3-0.5,3.4c-0.2,0.6-0.3-0.2-0.5-0.3c-0.1-2.8,0.1-5.6,0.5-8.3
			c0,1.1,0.1,2.3,0.1,3.4C324.6,126.1,324.4,126.8,325,127.3z"/><path fill="#161010" d="M401.7,104.4c0.7,0,1.2,0.6,1.2,1.3c0,0,0,0,0,0c0.1,0.7-0.4,1.3-1.1,1.3c-0.1,0-0.1,0-0.2,0
			c-0.7,0.1-1.3-0.4-1.4-1.2c0-0.1,0-0.2,0-0.2C400.3,104.9,400.9,104.4,401.7,104.4z"/><path fill="#fff" d="M319.6,149.6l-0.1,2.5c0,0.9,0,1.9,0,2.9s0,1.7,0,2.6c0.5,3.2-0.3,6.3-1.1,9.4c-1.1,0.8-1.4,2.3-2.4,3.2
			c-1.8,1-3.3,0.1-4.8-0.8c-4.6-2.7-8.7-6.2-13-9.4c-5.8-4.4-11.7-8.7-17.5-13.1c-1-0.7-2.6-1.2-1.8-3c1.4-0.8,3.4,0.3,4.8-1.6
			c-3.1-1.1-6.2-0.1-9.1-0.7c-2.7-0.5-4.8-2.1-7-3.4c-5-2.9-9.7-6.5-15.4-8.1c-6-1.8-12.3-2.4-18.5-1.7c-1.6,0.2-3.2,0.6-4.6-0.6
			c-0.9-2.7-0.5-5.3-0.2-8c0.3-3.3,0.3-6.6,0.2-9.8c0.1-0.5-0.2-1-0.6-1.2c-0.9,1.2-0.9,2.6-0.9,4c0.1,4.5-0.5,8.9-0.8,13.4
			c0,0.9-0.3,1.9-0.6,2.7c-2,1.3-4.1,2.5-6.7,1.4c-0.3-0.7-0.2-1.5,0.1-2.2c1.9-5.9-0.1-10.9-3.7-15.3c-6.6-7.8-15.4-11.4-25.3-12.6
			c-5.8-0.8-11.7-0.1-17.1,2.1c-2.5,1-4.8,2.6-6.6,4.6c-4.3,5-4.7,12.2-1.1,17.7c3.7,6,9.2,9.6,15.4,12.2c4.4,1.9,9.2,3,14,3.2
			c0.8-0.1,1.5,0.1,2.2,0.6c-0.4,3-2.8,3.7-5.2,4.4c-8.8,0-17.6,0.5-26.4-0.3c-2.9-0.3-5.8-0.1-8.6-0.1c-1.3,0-2.5-0.1-3.8-0.3
			c-2-0.3-3-1.4-3-3.4c0.1-7.6-0.6-15-1-22.6c-0.2-3.7-0.9-7.4-1.2-11.1c0-0.5-0.1-1-0.9-1.3c-0.5,1.2-0.6,2.4-0.2,3.6
			c0.9,6.7,0.9,13.5,1.3,20.3c0.3,3.4,0.5,6.8,0.5,10.1c-0.1,3.5-0.6,4.1-4,4.1c-18.3,0.1-36.6,1-54.9,0.5c-5.7-0.2-11.3-0.4-17-0.5
			c-2.9,0-3.8-0.9-4-3.8c0-0.5,0-1,0-1.5c0.3-10.2-0.8-20.3-0.5-30.5c0.1-1.1-0.1-2.2-0.7-3.1c-1,1.2-0.7,2.3-0.8,3.3
			c-0.4,9.9,0.5,19.8,0.5,29.7c0,0.9,0,1.7,0,2.5c-0.2,2.6-0.7,3.2-3.2,3.3c-8.7,0.5-17.4,1.3-26.1,1.1c-3.4,0.1-6.7,0.4-10,0.9
			c0.8,0.8,1.7,0.5,2.5,0.5c10.3,0.2,20.7-0.3,31-0.5c0.8,0,1.7,0,2.5,0c3.1,0.1,3.7,0.7,3.8,3.8c0.1,5,0,10,0,15
			c0,7.6,0,15.3,0,22.9c0,3.5-0.5,3.9-3.9,4.2c-8.8,0.8-17.5,1.7-26.3,1.5c-0.8-0.1-1.6,0.1-2.4,0.5c0.9,1.2,2.1,0.9,3.2,0.9
			c8.3,0.3,16.6-0.5,24.8-1.2c0.6-0.1,1.2-0.2,1.8-0.2c2.3,0,3.2,0.6,3.2,2.9c0,4.1,0.6,8.1,0.6,12.2c0,8.9,0,17.8,0,26.7
			c0,1.1-0.3,2.4,0.6,3.4c0.8,0,0.8-0.6,0.8-1.1c0.3-5.5,1.1-11,0.2-16.5c-0.2-2.4-0.3-4.9-0.1-7.4c0-5.4-0.2-10.8-0.5-16.2
			c-0.2-4,0.3-4.2,4.2-4.6c11.2-1.1,22.5-1.6,33.7-2.4c12.3-0.9,24.7-0.7,37.1-0.6c2.5,0,3.2,0.7,3.3,3.2c0.2,4.8,0.1,9.7-0.2,14.5
			c-0.4,4.7-0.4,9.5,0,14.2c-0.1,1.3,0.3,2.5,1,3.5c0.8-0.9,1-2.1,0.7-3.3c-0.9-6.4,0.2-12.7,0-19c-0.1-3.5,0.5-6.9,0.6-10.4
			c0.1-1.8,1-2.5,2.8-2.5c11.3,0.2,22.7,0.9,34,0.8c0.8,0,1.7,0,2.5,0.3c1,0.4,0.9,1.3,0.8,2.1c-0.1,1.7-0.2,3.4-0.5,5.1
			c-0.2,1.1-0.2,2.2,0.1,3.3c0.2,0.7,0.5,1.5,1.4,1.6s1.4-0.6,1.8-1.2c1.5-2.5,1.9-5.4,2.9-8.1c0.4-1,0.4-2.2,1.6-2.7
			c0.7-0.2,1.4-0.3,2.1-0.2c2.1,0.3,2.1,1.9,2.1,3.4c-0.1,4.6,0.2,9.2,1.1,13.6c0.2,1.3,0.6,2.5,1.2,3.6c0.2,0.5,0.7,0.8,1.2,0.8
			c0.8,0,0.9-0.7,1-1.2c0.3-1.6,0.5-3.2,0.6-4.8c0.1-3.7,0.6-7.4,1-11.1c0.5-3.9,0.5-3.9,4.4-4.5c0.4-0.1,0.8-0.2,1.2-0.3
			c2.9-0.2,5.8-0.6,8.7,0.2c0.5,0.3,0.8,0.9,0.9,1.4c0.6,3.9,2,7.6,2.6,11.6c0.7,5.7,0.4,11.4,0.6,17.1c0,1.1-0.1,3.1,1.3,3
			c1.2-0.1,0.6-2,0.7-3.1c0.1-0.4,0-0.8,0-1.3c0.1-1.8,0-3.6,0.1-5.3c0-0.7,0.1-1.5,0.8-1.7s1,0.5,1.4,1c0.4,0.6,0.8,1.1,1.3,1.6
			c0.5,0.5,1.1,1,1.8,0.7s0.8-1.1,0.7-1.8c-0.4-2.6-0.4-5.2-0.7-7.8c-0.4-4.6-0.6-9.3,0.3-13.9c0.1-0.4,0.2-0.8,0.5-1.2
			c0.5-0.5,1.3-0.7,2-0.4c1.7,0.9,1.3,2.6,1.4,4c0.4,7.3,1.3,14.5,4.2,21.3c0.6,1.4,1.3,2.8,2.2,4c0.3,0.4,0.7,0.9,1.2,0.7
			c0.8-0.2,0.7-0.9,0.6-1.5c-0.3-1.7-0.4-3.4-0.6-5c-0.2-0.7-0.2-1.3-0.2-2c0-0.8-0.2-2,0.8-2.2s1.3,0.9,1.6,1.7
			c1.1,2.8,2.5,5.4,4.2,7.8c0.6,0.8,1.1,1.9,2.5,2c0.5-1.3-0.6-2.5-0.3-3.7c0.1-0.4,0.1-0.9,0.6-1.1s0.8,0.2,1.1,0.5
			c0.5,0.6,0.9,1.2,1.3,1.9c2.6,4.2,5.9,7.8,9.9,10.8c0.9,0.7,1.9,1.3,1.6,2.6c-1.7,3.7-3.7,7.2-5.2,11c-0.4,1.2-1.3,1.1-2.2,1.1
			c-7.2,0.2-14.4,0.4-21.6,0.7s-14.2,0.2-21.3,0.5c-13.4,0.5-26.7,0.8-40.1,1.7c-8.9,0.6-17.9,0.5-26.9,0.8
			c-17.1,0.4-34.2,0.2-51.3,0.6c-13,0.3-25.9,1.1-38.8,0.4c-9.9-0.6-19.8,0.3-29.7,1.2c-4.8,0.4-9.6,0.6-14.5,0.7
			c-2.2,0-4.4,0.2-6.6,0.4c-2.7,0.4-3.1-0.1-3.2-2.8c-0.3-7.5-1.3-15-1.4-22.6c-0.3-18.7-1.1-37.4-0.3-56.2c0.2-4-0.3-8-0.3-11.9
			c0.1-16.6-0.8-33.2-0.8-49.8c0-3.3-0.2-6.6-0.2-9.9c0-1.6,0-1.6,1.7-1.6c6.3,0,12.7,0.3,19,0.1c4.9-0.2,9.8-0.2,14.7-0.6
			c2.9-0.2,5.8,0.2,8.6,0.3c7.5,0.1,15.1,0.1,22.6,0c9-0.2,18-0.1,26.9-0.3c9.8-0.2,19.7-0.2,29.5-0.6c11.3-0.5,22.7-0.6,34-1.1
			c16.4-0.8,32.8-1.2,49.3-0.7c12.5,0.4,24.9,0.3,37.3-0.3c8.5-0.4,16.9-1.1,25.4-1.5c8.8-0.3,17.6-0.8,26.4-0.4
			c4.3,0.2,8.6,0.7,12.9,1.1c2.4,0.2,4.7,0.3,7.1,0.2c2,0,2.1,0,2,1.9c-0.3,8.5,0,16.9-0.6,25.4c-0.5,8.5-0.9,16.7-1.4,25.1
			C319.4,146.5,320.1,148.1,319.6,149.6z"/><path fill="#fff" d="M447.1 266.1c-.9-.5-1.7-1.2-2.3-2-4.2-4.2-8.7-8.3-13.4-12-3.7-3-6.9-6.5-10.9-9.1-9.1-6-18.1-12.3-28.5-15.8-1.7-.6-3.4-1-5.2-1.3-5.8-.7-10.3 1.8-14 5.7-5.1 5.3-8.3 12.1-9.2 19.4-.6 3.6-.9 7.2-1 10.8-.1 11.1 2.9 22.1 8.5 31.7 3.7 6.1 7.9 11.8 12.4 17.3 5.4 6.3 11.7 11.8 18.7 16.3 6.8 4.5 14.3 7.2 22.2 9.2 1 .1 2 .4 2.8 1-5.1 7.1-12.4 11.1-20.5 13.7-6.5 2.1-13.3 2.5-20.1 2.3-13-.5-25.7-3.1-38.1-6.7-2-.6-3.8-1.9-5.7-2.1s-3.8 1.2-5.8 1.5c-7.3 1.2-14.7.8-21.9-1-10.4-2.4-20-6.5-28.4-13.1-14.9-11.7-24.3-26.8-27.3-45.7-1.6-10.1-.9-20.4 2-30.1 4-13.8 10.3-26.7 18.9-38.3 3-4 6.3-7.8 9.8-11.3 7.3-7.6 14-15.9 20.1-24.6 1.3-1.8 2.6-3.6 4-5.4l3.2 2.2c6.5 4.4 14 7.2 21.9 8.1l1 .1c1.6.2 3.1.6 3.9 2.3.1.2.3.4.5.6 2.7 1.6 2 3.7 1 6-6.7 15.2-13.3 30.5-22 44.8-3.3 5.5-3.2 6 .1 11.5 2.3 3.7 4.2 7.5 5.8 11.6 1.5 3.8 2.9 4.1 5.6.8 3.8-4.5 7.9-8.6 12.5-12.3 1.9-1.5 2.9-3.8 2.6-6.2-.8-10.9-.6-21.8.6-32.7.7-5.7 1.1-11.4 2.2-17.1.2-1.7 1-3.2 2.2-4.4 1.9-1.9 3.5-4.1 4.8-6.6.4-1 1.4-1.7 2.5-1.7 8.8-.8 17.3-3.2 25.3-7 3.4-1.6 6.7-3.6 9.7-6l5.6-4.5c.5 3.2.8 6.2 1.5 9.1 1.7 6.4 3.8 12.6 6.3 18.8 5.2 13 10.1 26 17.1 38.2 5.1 9 10.3 17.9 15.4 26.9C444.7 261.3 446.3 263.5 447.1 266.1zM10.9 60.9c.6 3.6 1.5 7.2 2.8 10.6.3.8.7 1.5 1.1 2.3.4.7 1.2 1 2 .7.1 0 .1-.1.2-.1.8-.5.7-1.3.3-2-1.7-3.6-2.7-7.4-3.2-11.3 5.9.1 11.7 0 17.5-.4.7 4.1 2.1 8 4.2 11.6.4.7.8 1.3 1.3 1.9.5.5 1.3.6 1.9.1.5-.4.7-1 .4-1.6-.2-.5-.6-1-.8-1.6-1.8-3.2-3.1-6.7-3.6-10.4l9.7-.4c2.8-.1 5.6-.1 8.4-.4 1.3-.1 1.5.4 1.8 1.4.9 3.7 2.2 7.3 3.8 10.7.3.6.6 1.2 1 1.8.4.7 1.2.9 1.9.6 0 0 .1 0 .1-.1.7-.3.9-1.2.6-1.8 0-.1-.1-.1-.1-.2-1.2-2.5-2.3-5.1-3.1-7.7-.5-1.5-.9-3.1-1.3-4.6.7-.7 1.4-.5 2-.5 5.8 0 11.5 0 17.3 0 1.2 0 1.5.4 1.8 1.5.6 3.5 1.7 6.9 3.3 10.1.4.9.9 1.6 1.5 2.3.6.7 1.5.8 2.2.2 0 0 .1 0 .1-.1.7-.6.4-1.3-.1-2-2.5-3.5-3.2-7.6-4.1-11.8 2.3 0 4.5 0 6.7 0 4.6.1 9.1.3 13.7.3 1.5 0 2.1.3 2.3 1.8.5 3.1 1.4 6.1 2.8 9 .4.9.9 1.8 1.5 2.6.5.7 1.3 1.2 2.2.5.6-.5.8-1.3.3-2 0 0-.1-.1-.1-.1-2.2-3.3-2.8-7-3.7-10.7-.1-.4-.1-.8.1-1.2 2.8.1 5.7-.4 8.7-.1 3.5.2 6.9.2 10.4 0 2.1 0 2.1 0 2.4 2 .5 3.8 2 7.4 3.3 10.9.2.5.5.9.8 1.2.6.4 1.4.3 1.8-.2.2-.2.3-.4.3-.7 0-.8-.2-1.5-.5-2.2-1.2-3-2-6.1-2.5-9.3-.2-1.7-.2-1.8 1.4-1.9 6.3-.2 12.5-.4 18.8-.7.9-.2 1.8.4 2 1.3 0 .1 0 .2 0 .3.5 2.7 1.1 5.3 1.7 7.9.3 1.5.9 2.9 1.8 4.2.6.9 1.4 1.4 2.3.8s.6-1.5.2-2.3c-1.9-3.8-2.2-7.9-3.1-12 2-.2 4-.3 6.1-.1 4.6.3 9.1.3 13.7.1 1.3-.1 1.8.3 1.9 1.6.3 3.3.9 6.5 1.9 9.7.3.8.6 1.6.9 2.4.2.7 1 1.1 1.8.9 0 0 .1 0 .1 0 .7-.2 1.1-1 .9-1.7 0-.1-.1-.1-.1-.2-.7-2-1.3-4-1.6-6.1-.3-1.8-.4-3.5-.8-5.3-.2-1.2.3-1.4 1.4-1.5 5.9-.2 11.9-.1 17.8 0 1.3 0 1.5.6 1.6 1.7.6 3.9 1.5 7.8 2.9 11.6.6 1.8 1.3 2.5 2.2 2.2s1.2-1.3.6-3c-1.4-3.9-2.3-7.9-2.7-11.9.3-.1.7-.2 1-.2 5.4 0 10.8 0 16.3 0 2.1 0 2.1.1 2.6 2.1.6 3.8 1.7 7.4 3.1 11 .3.6.6 1.2.9 1.8.4.6 1.2.8 1.8.5.6-.3 1-1 .7-1.6 0 0 0 0 0-.1-.2-.7-.5-1.3-.8-1.9-1.4-3.7-2.3-7.6-2.8-11.5 1.2-.2 2.5-.3 3.7-.1 5.6.2 11.2-.1 16.8-.4 2.3-.1 2.3-.1 2.8 2.1.8 3.3 1.8 6.5 3 9.7.1.4.3.8.5 1.2.7 1.6 1.5 2.1 2.4 1.6 1.3-.7.7-1.7.4-2.7-1.4-3.6-2.6-7.4-3.4-11.2 0-.3-.1-.6-.1-.8 3.9-.4 7.8-.6 11.7-.7 2.6 0 5.3 0 7.9-.1.8-.1 1.6.4 1.7 1.2 0 .1 0 .1 0 .2.8 3.6 1.9 7 3.4 10.3.3.8.8 1.5 1.3 2.1.4.5 1.1.5 1.6.2.5-.3.8-.9.6-1.5-.2-.6-.5-1.1-.7-1.6-1.5-3.4-2.6-7-3.4-10.7 1.8-.2 3.6-.3 5.5-.2 4.3 0 8.6.1 13 0 1.3 0 1.9.3 2.2 1.7.9 3.9 2.4 7.6 4.6 10.9.4.8 1 1.6 1.8 2.1.6.5 1.4.4 1.9-.1.4-.4.5-1.1.2-1.6-.2-.4-.6-.8-.9-1.3-2.3-3.5-3.9-7.3-4.6-11.4.7-.5 1.5-.3 2.2-.3 4.9.1 9.8.6 14.7.4 1.2-.1 1.6.3 1.6 1.6-.2 6.2 0 12.4.2 18.5.1 2.8.3 5.6.5 8.4.1 1.3-.2 1.8-1.6 1.8-3.7.1-7.5-.1-11.1-.5-6.2-1-12.5-.9-18.7-.9-14.5.1-28.9 1.2-43.4 2-11.3.6-22.5.6-33.8.2-13.8-.4-27.6-.5-41.4.2-11.2.6-22.4.3-33.5 1.1-9.6.6-19.1.3-28.7.8C93.3 93 77.4 92.5 61.5 93c-8.2.3-16.4-.6-24.6-.1-10.2.7-20.3.5-30.5.3-2.2 0-2.1.3-2.3-2.3C3.5 84 3.2 77.1 3.4 70.1c0-2.7-.2-5.4-.1-8.1 0-1.6.1-1.6 1.7-1.5C7 60.7 8.9 60.8 10.9 60.9z"/><path fill="#ffd574" d="M219.7 129.9c.6.6 1.2.1 1.8-.1 1.5-.3 3-.7 4.5-1.1.9-.9 2.1-1.2 3.3-.9 3.3.1 6.5-.6 9.8-.6 5.4.1 10.8 1 15.9 2.8 3.5 1.2 6.4 3.4 9.5 5.2 2.4 1.4 4.8 2.9 7.1 4.4 1 .6 2.1.7 3 1.2 1 1.4 3 1.7 3.9 3.3 3.3 2.6 6.6 5.2 10 7.7 6.6 5 13.2 10 19.8 14.9 2.2 1.6 4.5 3.4 7.5 3.3-.3.6-.6 1.2-1 1.7-8.6 11.5-16.7 23.4-26.9 33.7-7 6.9-12.9 14.9-17.5 23.5-.5 1-1.1 2-1.7 3.1-.1-.7-.6-1.2-1.2-1.6-4.7-3.2-8.6-7.5-11.4-12.5-.3-.5-.7-1-1.2-1.7-.3.8-.3 1.8.1 2.6.2.6.5 1.3.7 1.9.2.5.1 1.1-.3 1.4-.4.3-1 .3-1.4-.1-.7-.6-1.4-1.3-2-2-1.9-2.4-3.4-5.1-4.4-7.9-.2-.9-.7-1.7-1.3-2.4-.3 2.9.5 5.4.7 8 .1.8.2 1.5.3 2.3.1.6-.2 1.2-.7 1.5-.6.2-1.2 0-1.6-.4-.7-.7-1.3-1.6-1.8-2.5-2.4-4.5-3.9-9.4-4.6-14.4-.6-3.9-1-7.9-1.1-11.8 0-.5-.2-1-.3-1.5-.3-1.1-.5-2.1-.6-3.2 0-.4 0-.7.1-1.1.5-2 .2-4 .6-5.9-.3.2-.1.6-.2 1 0 2-.8 3.9-.7 5.9-.2 1.1-.7 2.2-1.3 3.1-.5 3.7-.6 7.4-.4 11.1.1 3.6.3 7.2.8 10.8.1.7.1 1.3.1 2-.1 1.9-1.2 2.5-2.9 1.5-.9-.7-1.6-1.5-2.1-2.5-.3-.4-.3-1-1.2-1.2v6.6c-1.3-.1-1.1-1.2-1.1-1.9.6-4.9-1.2-9.3-2.9-13.7-.1-1.9-.9-3.7-1.4-5.6-.6-2.4-1-4.7-1.3-7.1-1-1.8-3-2.7-5-2.3-.9.2-1.8 0-2.6-.6.2-1.7 1.6-1.2 2.5-1.3 3.7-.2 3.5-.2 3.2-4-.7-7.6-1.8-15.3-.8-22.8-4.3 8.7-8 17.8-9.3 27.6-.4 1.6-.4 2.8 1.7 2.8.4 0 .8.3.9.7-.6.5-1.3.2-1.9.3-1.8.1-2.1.3-2.3 2-.4 3.3-.9 6.7-1 10-.1 2.6-.5 5.2-.6 7.8 0 1-.2 2.2-1.4 2.4-1.1.1-2.2-.7-2.5-1.8-.5-1.2-.9-2.5-1.1-3.9-.9-4.8-1.2-9.7-1-14.6.1-1 .1-1.9-1.2-2 0-1.3 1.6-2.2 1.1-3.7 1-6.7 2.7-13.3 5.3-19.6.3-.9.7-1.8 1.2-2.6-.4.7-.8 1.3-1.1 2.1-2.5 6.8-5.4 13.4-7.3 20.4-.4 1.2-.6 2.5-1.6 3.4-.9 2.6-1.8 5.1-2.5 7.7-.4 1.5-1 2.9-1.9 4.1-1.2 1.7-2.9 1.4-3.7-.5-.5-1.2-.7-2.5-.5-3.7.3-2.5.6-5 .9-7.5-.6-.6-.6-1.7 0-2.3 0 0 0 0 0 0-4 .3-8.2.2-12.3.1-.7 0-1.3-.2-1.9-.6 0-1.6 1.4-1.1 2.2-1.2 3.2-.1 6.4-.1 9.6 0 1.3 0 2.3-.3 2.6-1.8 2-8 5.2-15.7 9.5-22.8-3.6 1.6-6.6 3.4-9.9 4.6-1.7.7-3.5 1.3-5.3 1.6-4 .5-6.4-2-5.6-5.9.9-4.3 3.5-7.7 6-11.1 1.1-1.4 2.2-2.8 3.4-4.1 1.3-1.3 2.6-2.4 4.1-3.4 1.9-.7 3.5-1.9 4.7-3.6 1.4-1.9 3.6-2.7 5.4-4.1 3.8-2.4 8.1-3.8 12.1-5.9C216.7 130.9 218.1 129.8 219.7 129.9zM331.2 363.6c-3.6 2.2-7.2 4.4-10.8 6.6-2.5 1.5-5.2 2.8-8 3.8-.4.2-.8.3-1.2.3-1 0-2.2.3-2.6-.9-.5-1-.3-2.3.5-3.1 1.7-1.8 3.5-3.4 5.6-4.8 1.7-1 3.4-2 5.1-2.8.4-.2.8-.3 1-1-2.8.4-5.5 1-8.2 1.8-3.8 1-7.3 2.7-11 4-1 .4-2.1.7-3.2.7-1.3 0-2.5-.2-2.9-1.6s.4-2.2 1.1-2.9c1.4-1.3 2.9-2.3 4.6-3.1 3.4-1.6 7.1-2.6 10.9-3 3.9-.4 7.8-1.3 11.7-1.8 2.4-.3 4.8-.8 7.2-1.4 5.1-1.1 9.8-3.1 13.5-7l10.6 3c-.1.7-.5 1.3-1.1 1.6-7.8 5.1-14.3 11.7-20.8 18.4-.9 1-2 1.8-3.2 2.4-.5.3-1.1.4-1.7.4-1.3 0-1.8-.7-1.5-2 .2-1.1.7-2.1 1.3-3 1-1.6 2.2-3 3.6-4.2.2-.3.4-.7.7-.9.3-.1 0-.3 0-.2C332.2 363.6 331.5 363.4 331.2 363.6zM393.1 355c3.3 1.7 6.9 2.7 10.6 3.1 1 .1 2.5 0 2.7 1.4.2 1.6-1.2 1.8-2.3 2.2-2.3.8-4.7.8-7 .2-1.9-.5-3.9 0-5.3 1.5-.5.5-1 1-1.4 1.4-3 3-6.1 6.1-9.1 9.1-.7.8-1.6 1.5-2.7 1.8-.7.3-1.5.2-2.2-.3-.7-.6-.5-1.4-.3-2.1.7-2.4 2.2-4.4 3.4-6.5.6-1.1 1.3-2.1 2-3.2.1-.5.4-1 .8-1.4.1-.1.2-.2.3-.4-.1.1-.2.3-.3.4-.4.4-.8.6-1.3.8-5.1 4.3-10.7 7.9-16 12-.9.6-1.8 1.2-2.8 1.7-.9.5-2 1-2.8 0-.7-.9-.1-1.7.4-2.5 1.3-1.7 2.7-3.2 4.4-4.5 3.4-2.9 6.7-5.9 10.1-8.8.3-.3.6-.6.9-1-.9-.3-1.4.2-2 .5-3.1 1.7-6.4 3.1-9.7 4.3-.7.2-1.4.5-2.1.8-.7.3-1.6.1-2-.5-.4-.7-.3-1.6.3-2.1.8-.9 1.7-1.6 2.6-2.4 3.6-2.5 7.5-4.6 11.6-6 2.4-.3 4.7.5 7 .6C385 355.4 389 355.4 393.1 355z"/><path fill="#fff" d="M402.2 156.6c.7 2.3.5 4.2.7 6.1.1.7-.4 1.1-.8 1.5-9.6 8.7-21.5 14.4-34.2 16.5-2.1.4-4.2.5-6.3.9-1.2.4-2.6-.1-3.4-1.1-.8-1-1.8-1.8-2.3-3.4C372.8 174.2 388.7 167.2 402.2 156.6zM349.8 177.3c-2.1 2.3-4.2 4.5-6.1 6.9-.5.6-1.2.9-2 .7-8.9-.8-17.4-4-24.6-9.2-1.4-1.1-1.5-1.1-.4-2.5.8-1.1 1.7-2.1 2.5-3.1.4-.6 1.2-.8 1.8-.5.1 0 .2.1.2.2 5.3 3.7 11.5 4.8 17.5 6.4C342.3 176.9 346 177.3 349.8 177.3z"/><path fill="#fefefe" d="M323.9 244.8c1.7-2.9 3.2-5.4 4.6-8 .6-1.1 1.3-.8 2.1-.6 3.2.7 6.4 1.5 9.6 2.2 2 .4 4 .8 6 1.1.9 0 1.6.7 1.6 1.6 0 .1 0 .2 0 .3-.1 2 .5 4 0 6.2C340 246.3 332.2 245.5 323.9 244.8zM346.6 250.1c-2.5 2.3-4.6 4.2-6.7 6.2-.4.5-1 .7-1.6.6-3.1-.7-6.3-1.3-9.4-1.9-.5-.1-1-.1-1.3-.7l-4.1-6.9C331.5 247.9 338.8 248.9 346.6 250.1zM347.5 236.9c-5.8-.8-11.3-2-17.1-3.3 1.1-2.2 2.2-4.3 3.3-6.3.3-.6.7-.6 1.3-.5 3.8.7 7.7 1.1 11.4 2.1.8.2 1.1.5 1.1 1.4C347.5 232.4 347.5 234.6 347.5 236.9zM353.3 177.2c.8 2.1 2.2 4 4 5.4 1 .9 1 1.5.3 2.6-1.4 2.3-3.1 4.4-4.9 6.4-.8.9-1.6 1.1-2.6.2-1.5-1.4-3.2-2.4-4.5-4.1-.6-.8-.9-1.4 0-2.4C347.9 182.4 350.6 179.9 353.3 177.2z"/><path fill="#fff" d="M335.4 224.3c0-.1 0-.3 0-.4 1.8-4.6 1.8-4.6 6.9-3.7l3.5.6c2 .4 2 .4 2 2.6 0 .3 0 .5 0 .8-.1 2.3-.1 2.2-2.4 1.8C342.1 225.4 338.7 224.9 335.4 224.3zM338.6 217c1-2.1 1.8-4 2.7-5.9.2-.5.5-.8 1.1-.6.4.1.8.1 1.2.2 1.6.4 3.9.2 4.7 1.4.9 1.4 0 3.6-.1 5.4 0 .8-.4 1.1-1.3 1C344.3 217.9 341.6 217.6 338.6 217zM342.7 208c.8-1.8 1.5-3.4 2.2-5.1.3-.8.8-.9 1.6-.8 3.2.5 3.3.5 3 3.8s-.3 3.4-3.6 2.7L342.7 208zM332.4 264.3l-2.8-6.5c2.6 0 4.8.8 7.5 1.2L332.4 264.3zM346.4 199.6c.7-1.9 1.5-3.9 2.2-5.8 2.6.9 2.7.5 2.1 3.1 0 .2-.1.3-.1.5C350 200.6 350 200.6 346.4 199.6z"/><path fill="#1c1a14" d="M318.4,166.9l0.6-9.6c0.6-0.3-0.4-1.6,0.9-1.5c0.6,3.3,1,6.6-0.8,9.8c-0.6,1.1,0.8,0.8,0.9,1.3L318.4,166.9z
			"/><path fill="#6e705c" d="M319.6,149.6c-0.2-1.5-0.1-3.1,0.3-4.5c0.5,0.9-0.3,2.1,0.5,3C320.4,148.6,320.1,149.2,319.6,149.6z"/><path fill="#ffd574" d="M432.4,338.2c0.2-0.1,0.4,0,0.4,0.3C432.7,338.6,432.5,338.5,432.4,338.2
			C432.4,338.3,432.4,338.3,432.4,338.2z"/><path fill="#e9ecdd" d="M467.4,332.6c-0.8-0.8-1.3-1.9-1.5-3c0.1-0.1,0.3-0.2,0.5,0c0,0,0,0,0,0c0.7,0.7,1.2,1.6,1.6,2.5
			L467.4,332.6z"/><path fill="#c7d0bc" d="M466 329c-.6-.2-.6-.7-.6-1.2C465.8 328.1 466 328.6 466 329zM466.4 329.6h-.5c0-.2 0-.4.1-.6C466.2 329.1 466.4 329.3 466.4 329.6 466.4 329.6 466.4 329.6 466.4 329.6z"/><path fill="#010000" d="M432.2,303.2c1.9,2.3,3.9,4.4,6,6.5c2.6,2.6,5.3,5.3,7.7,8.1c0.6,0.7,1.2,1.4,1.6,2.3c0.8,1.6,0,2.7-1.8,2.5
			c-1.1-0.2-2.1-0.5-3.1-1.1c-3.4-1.6-6.8-3.5-10-5.4c-4.2-2.4-8.3-4.8-12.5-7.3c-0.5-0.4-1.3-0.2-1.8-0.7c-0.3-0.1-0.5-0.3-0.7-0.5
			c0-0.1-0.2-0.2-0.3-0.2c-0.3,0.1-0.2,0.4-0.1,0s0.5,0.2,0.2,0.1c0.3,0.3,0.5,0.5,0.8,0.7c0.4,0.3,0.7,0.7,0.7,1.2
			c2.6,2.8,5.5,5.3,8.6,7.4c5.1,3.5,10.4,6.6,16.1,9.1c0.7,0.3,1.4,0.6,2,1c0.7,0.3,1,1,0.8,1.7c-0.2,0.7-0.9,0.8-1.4,0.8
			c-1.3-0.1-2.7-0.2-4-0.5c-11-2.2-21-6.9-30.5-12.7c-4-2.4-7.8-5.1-11.6-7.7c-0.7-0.5-2-1-1.3-2.1c0.8-1.3,1.6,0,2.3,0.4
			c7.4,4.8,14.7,9.9,22.9,13.6c3.6,1.8,7.4,3.3,11.3,4.4c0.4,0.1,0.8,0,1.2,0.1s1,0.3,1.4,0.5l0.1,0.1c0.1,0,0.2,0,0.2-0.1H437
			c-0.3-0.2-0.6-0.3-0.9-0.4c-0.5-0.2-0.9-0.5-1.2-0.9c-3.4-2.1-6.9-4.2-10.2-6.6c-2.6-2-5.1-4.1-7.4-6.5c-1.1-1.1-2.1-2.3-3-3.5
			c-1.3-1.7-1.5-2.8-0.7-3.4c1.1-0.9,2.3-0.3,3.3,0.3c1.6,0.8,3.1,1.7,4.6,2.6c7.2,4.4,14.5,8.7,22,12.5c0.6,0.3,0.7,0,0.5-0.5
			c-3.6-4.1-7.6-7.9-11.4-11.8c-1.6-1.5-3-3.2-4.3-5c-0.4-0.6-0.8-1.3-0.3-2.1s1.4-0.8,2.3-0.5c1.8,0.5,3.4,1.3,5,2.3
			c5,3.1,9.6,6.8,13.7,11.1c0.3,0.2,0.5,0.3,0.8,0.5v0.2l0.2-0.1c-0.2-0.2-0.3-0.4-0.2-0.6c-2.7-5-5.5-10.1-8.2-15.1
			c-1.2-2.2-2.3-4.5-3.4-6.8c-0.3-0.6-0.6-1.2-0.8-1.9c-0.2-0.7-0.3-1.5,0.4-2.1c0.7-0.5,1.6-0.4,2.2,0.1c0.9,0.5,1.7,1.1,2.4,1.8
			c2.3,2.1,4.5,4.3,6.5,6.7c0.3,0.4,0.7,0.7,1.1,1.1c0.3,0.1,0.5,0.3,0.7,0.5v0.2l0.2-0.1c-0.1-0.2-0.2-0.4-0.2-0.6
			c-2.2-5-4.9-9.8-8-14.3c-0.5-0.7-1-1.4-1.3-2.2c-0.2-0.4,0-0.9,0.3-1.1c0.4-0.3,0.8-0.2,1.2,0.1c0.4,0.4,0.8,0.8,1.2,1.3
			c4.5,6.3,8.2,13.2,11,20.5c0.3,0.7,0.5,1.4,0.6,2.2c0.1,0.6-0.2,1.2-0.7,1.5c-0.5,0.3-1.2,0.2-1.6-0.3c-0.8-0.8-1.5-1.6-2.2-2.5
			c-2.9-3.8-6.1-7.4-9.6-10.8c-0.5-0.2-0.8-0.1-0.5,0.5c3.6,7.3,7.6,14.4,11.5,21.5c1,1.7,1.8,3.4,2.7,5.2c0.4,0.8,0.9,1.8,0,2.5
			s-1.9-0.1-2.6-0.8s-1.6-1.7-2.4-2.6c-4.6-5.2-9.9-9.8-15.8-13.5c-0.4-0.3-0.9-0.4-1.4-0.7C432.7,303,432.4,302.8,432.2,303.2z"/><path fill="#040302" d="M413.1 297.5c-11.8-.6-23-3.4-33-10-.6-.4-1.1-.8-1.6-1.3-.3-.3-.3-.8 0-1.2.3-.4.8-.4 1.1-.2.4.2.9.5 1.3.8 10.6 6.6 22.9 10 35.4 9.5.3 0 .7 0 1 0 .7 0 1.5.1 1.5 1s-.8.9-1.4 1.1C416.1 297.5 414.6 297.6 413.1 297.5zM417.1 292.6c-9.5-.9-18.8-3.8-27.1-8.6-.2-.1-.4-.3-.6-.4-.4-.3-.8-.7-.5-1.3s.9-.6 1.5-.4c.5.2.9.5 1.3.7 7.4 4 15.5 6.5 23.8 7.5 1.7.2 3.4.1 5.1.2.6 0 1.3.1 1.4.8.1.9-.6 1.1-1.3 1.2C419.7 292.5 418.7 292.5 417.1 292.6z"/><path fill="#050403" d="M399.5,244.5c0.8,0.1,1.5,0.2,2.3,0.4c5,1.4,9.6,3.7,13.7,6.9c0.7,0.6,1.4,1.2,2,1.9c0.4,0.4,0.8,1,0.2,1.5
			c-0.5,0.4-1.2,0.4-1.6-0.1c-0.5-0.4-0.9-0.8-1.4-1.1c-3.4-2.8-7.3-4.9-11.4-6.4c-1.6-0.6-3.2-1-4.9-1.1c-0.8-0.1-1.7-0.1-1.5-1.2
			c0.1-0.8,0.9-0.8,1.6-0.8C398.7,244.4,398.9,244.5,399.5,244.5z"/><path fill="#080604" d="M419.9,284.2c-1-0.2-2-0.4-3-0.6c-4-1.1-7.9-2.6-11.6-4.5c-0.2-0.1-0.3-0.2-0.4-0.3
			c-0.7-0.4-1.8-0.8-1.2-1.9c0.5-0.9,1.3-0.3,2,0c2.2,1,4.3,1.9,6.5,2.8c2.3,0.9,4.6,1.6,7,2.1c0.3,0.1,0.7,0.1,1,0.2
			c0.6,0.2,1.2,0.4,1.1,1.1S420.6,284.2,419.9,284.2z"/><path fill="#0c0905" d="M403,301.5c-3.9-0.3-7.7-0.8-11.5-1.5c-0.2,0-0.3-0.1-0.5-0.1c-0.8-0.3-1.9-0.4-1.6-1.5s1.3-0.6,2.1-0.5
			c4,0.8,8,1.3,12.1,1.5c0.4,0,0.9,0,1.3,0.1c0.6,0,1.3,0.3,1.3,0.9s-0.7,1.1-1.4,1.2C404.4,301.6,403.9,301.5,403,301.5z"/><path fill="#0a0805" d="M378,254c0,1.8,0.2,3.5,0.5,5.3c0.1,0.6,0.1,1.2,0.1,1.8c0,0.4-0.3,0.6-0.6,0.7c-0.3,0.1-0.7,0-0.9-0.3
			c-0.3-0.4-0.5-0.9-0.6-1.4c-0.5-2.4-0.7-4.8-0.6-7.3c0-0.4,0.1-0.8,0.2-1.2c0.1-0.5,0.7-0.8,1.2-0.7c0.4,0.1,0.7,0.5,0.7,0.9
			C378,252.5,378,253.2,378,254z"/><path fill="#c5b874" d="M418.2,307.5c0.8,0.2,1.5,0.7,2,1.3c-0.4,0.1-0.9,0.1-1.1,0.6c-0.5-0.2-0.8-0.5-1-1
			C417.9,308.1,417.9,307.7,418.2,307.5z"/><path fill="#baac6c" d="M435.3,325.1c-0.4,0-0.8-0.1-1-0.5l0.6-0.7c0.6,0,1,0.4,1.5,0.6C436.3,325.6,435.8,325.2,435.3,325.1z"/><path fill="#737047" d="M441,291.5c-0.4-0.3-0.8-0.8-0.3-1.2c0.3-0.2,0.7,0.2,0.9,0.7L441,291.5z"/><path fill="#57452b" d="M444,318.9c0.4,0.1,0.8,0.5,0.6,0.8c-0.4,0.5-0.8,0.1-1.1-0.3L444,318.9z"/><path fill="#ffd574" d="M450.6,297.6c-0.2-0.3-0.6-0.5-0.6-0.9l0.6-0.1c0.4,0.2,0.5,0.6,0.6,1C451.1,297.7,450.9,297.8,450.6,297.6
			C450.7,297.6,450.7,297.6,450.6,297.6z"/><path fill="#b5935c" d="M449.8,312.8c0.3,0,0.4,0.2,0.4,0.5c0.2,0.2,0.2,0.5,0,0.7c0,0,0,0,0,0c-0.5-0.2-0.9-0.6-1-1.1L449.8,312.8z
			"/><path fill="#b1b16f" d="M432.2,303.2c-0.3-0.1-0.4-0.4-0.2-0.5c0.4-0.2,0.8,0,1,0.4L432.2,303.2z"/><path fill="#e6d5b3" d="M331.2,363.6l2.5-2c-0.3,1.1-1,2-2,2.5L331.2,363.6z"/><path fill="#e8d5b0" d="M382.5,362.1c0,0.7-0.4,1.3-1,1.5l-0.6-0.5C381.2,362.5,381.8,362.1,382.5,362.1L382.5,362.1z"/><path fill="#010101" d="M335.3,133.2c-3.4-4.8-3.5-9.8-0.3-13.7c1.4-1.9,3.5-3.1,5.8-3.3c3.8-0.4,7.1,2.2,8.1,6.2
			c0.2,0.7,0.2,1.5,0.4,2.4c1.4,0.2,2.6-0.8,3.8-0.5c0.6-0.6,0.2-1.2,0.2-1.8c-0.4-2.9,0.1-5.8,1.4-8.3c1.5-2.7,3.8-4.4,7-4.3
			c3.1-0.1,6,1.6,7.6,4.3c1.1,1.9,1.7,4.1,1.8,6.3c1.3,0.4,2.5-0.2,3.8,0c0.7,0.1,1.7,0,1.7,1s-0.8,1.2-1.6,1.1
			c-5.4-0.2-9.4,2.8-13.3,6c-1.2,1.1-2.1,2.5-2.7,3.9c-1.1,2.1-2.1,4.2-3.3,6.3c-1.1,1.9-1.8,2-3.7,0.8c-2.2-1.3-4.3-2.7-6.5-4
			c-1.1-0.7-2.4-1-3.6-0.8c-0.6,0.1-1.2,0.1-1.8,0.1c-2.6-0.3-5.1,0.5-7.2,2.1c-0.6,0.5-1.4,1-2,0.1s0.1-1.4,0.7-1.9
			C332.8,134.5,334,133.8,335.3,133.2z"/><path fill="#070503" d="M348.6,112.7c-0.1,1.2-0.8,1.5-1.5,1.1s-1.2-0.9-1.9-1.3c-3.8-2.5-7.3-1.8-9.8,2c-0.4,0.6-0.8,1.3-1.1,2
			s-0.8,0.9-1.5,0.5c-0.5-0.3-0.5-0.8-0.4-1.3c1.3-4.3,5.5-7,9.9-6.6c2,0.3,3.9,1.2,5.4,2.6C348.3,112,348.6,112.5,348.6,112.7z"/><path fill="#080604" d="M367,108.7c0,0.5-0.4,0.9-0.9,0.9c-0.1,0-0.2,0-0.3-0.1c-0.7-0.3-1.4-0.6-2-1c-4.7-2.5-7.6-1.2-10.7,2.8
			c-0.5,0.7-0.6,2-1.9,1.4c-0.8-0.3-0.7-1.1,0.2-2.6c0.7-1.1,1.6-2.1,2.7-3c2.6-2.1,5.5-2.8,8.8-1.4c1.1,0.5,2.1,1,3.2,1.5
			C366.6,107.5,367,108,367,108.7z"/><path fill="#100c07" d="M395.6,144.8c0,0.5-0.4,0.9-0.9,0.9c-0.2,0-0.4-0.1-0.5-0.2c-1.3-1.2-2.6-2.4-3.8-3.7
			c-0.5-0.5,0.1-1.4,0.9-1.4C392.4,140.5,395.6,143.7,395.6,144.8z"/><path fill="#120d08" d="M393.3,151.9c-0.8,0-3.6-2.3-3.8-3.1c-0.1-0.3,0-0.7,0.2-0.9c0.3-0.4,0.8-0.4,1.1-0.2
			c1.1,0.7,2.2,1.5,3.1,2.5c0.3,0.3,0.4,0.8,0.2,1.2C394,151.7,393.6,151.9,393.3,151.9z"/><path fill="#16100a" d="M330.5,158.3c-0.6,1.2-1.2,2.4-2,3.5c-0.4,0.6-1.3,0.1-1.4-0.6c0.1-1.4,0.7-2.8,1.8-3.7
			c0.4-0.3,1.1-0.2,1.4,0.2C330.5,157.9,330.5,158.1,330.5,158.3z"/><path fill="#110c08" d="M329.2,154.4c-1,0.6-1.1,1.8-1.8,2.7c-0.3,0.4-0.9,0.2-1.1-0.1c-0.6-0.8-0.6-2,0.1-2.8
			c0.4-0.8,1.3-1.2,2.1-0.9C329,153.4,329.2,153.8,329.2,154.4z"/><path fill="#c6a76c" d="M319.1,154.7c-0.3-0.9-0.1-1.8,0.4-2.6c0.5,0.6,0.7,1.4,0.5,2.2C319.7,154.6,319.5,154.9,319.1,154.7z"/><path d="M319.1 154.7l.9-.4c0 .5 0 1 0 1.5l-.9 1.5C319 156.4 319 155.5 319.1 154.7zM192.8 144.2c-.5 1.7-2.2 2.3-3.3 3.5-1.3.7-2.8.9-4.2.7-4.5-.5-8.9-.7-13.4-.4-5.4.1-10.8-.7-16.2-.6-2.9.1-3.1.2-3.1 3.2 0 6 0 12 0 18 .1 4.7 0 9.3-.4 13.9-.4 3.5 0 3.6 3.4 3.9 5.7.6 11.5.4 17.2.5 1.2 0 2.4-.2 3.3.9 3.6.4 7.2.2 10.8.2 1.2 0 2.3 0 3.7 0-.1 1.1-.2 2.1-.3 3.1-9.6.3-19.1-.1-28.7-.3-2.9-.1-5.8-.2-8.6-.3-1.8-.1-1.8-.1-1.9 1.8-.1 10.3-1.1 20.5-.5 30.8.1.8.1 1.5 0 2.3 0 .6-.5 1.1-1.1 1.2-.7.2-1.4-.2-1.6-.9-.2-.6-.3-1.3-.4-2-.3-5.1-.4-10.2-.2-15.2.2-5.3.4-10.7.5-16 0-1.9 0-2-1.9-2-13.4-.4-26.8-.1-40.1.8-5.7.4-11.3.7-17 1.1-5.4.4-10.8.8-16.2 1.2-1.7.1-1.8.2-1.7 2 .7 8.9.3 17.8.8 26.7.3 5.3-.2 10.5-.1 15.8 0 .3 0 .7-.1 1-.1.6-.6 1.1-1.2 1.1-.6.1-1.2-.2-1.5-.8-.4-.8-.6-1.8-.4-2.7.3-7.7-.1-15.4-.1-23.1 0-5.9-.4-11.7-.6-17.5-.1-2-.1-2.1-2.2-1.9-6.9.6-13.8 1.3-20.8 1.4-2.6 0-5.3 0-7.9 0-.9 0-1.7-.2-2.4-.6-.5-.3-.8-1-.6-1.5.1-.5.6-.9 1.1-.9.3 0 .7 0 1 0 8.6.6 17.1-.6 25.6-1.2 1.6-.1 3.2-.3 4.8-.4.8 0 1.2-.4 1.2-1.3 0-.3 0-.5 0-.8-.4-12.4-.1-24.7-.2-37.1 0-1.3-.1-2.5-.1-3.8 0-1-.4-1.5-1.5-1.4-4.6.3-9.1.1-13.7.5-3.1.3-6.3.4-9.4.3-4.7 0-9.3 0-14 .1-1.1 0-2.1.1-2.4-1.2-.2-.9.9-1.6 2.4-1.7 3.4-.1 6.8-.3 10.2-.3 6.5.1 12.9-.6 19.3-.8 2.4-.1 4.7-.2 7.1-.2 1.3 0 1.8-.3 1.7-1.7-.2-5.4-.3-10.8-.4-16.2-.1-5.1-.2-10.2 0-15.3 0-1.3-.1-2.7-.1-4.1-.1-.6 0-1.2.2-1.7.3-.6 1.1-.9 1.7-.6.2.1.4.3.5.5.3.6.5 1.3.5 2 0 2.5 0 4.9.1 7.4.2 9.1.4 18.1.7 27.2.1 2.4.1 2.4 2.6 2.4 15.9.1 31.8.9 47.8.4 8.8-.3 17.6-.9 26.4-.5 1.2 0 1.4-.4 1.4-1.5-.1-3.6-.2-7.3-.5-10.9-.5-7.4-.5-14.9-1.6-22.3-.1-.8-.2-1.7-.1-2.5 0-1 .1-2 1.4-2 1.1 0 1.3.8 1.4 1.7.3 2.3.6 4.5.8 6.8.9 9.3 1.4 18.7 1.7 28.1 0 .5 0 1 0 1.5 0 .9.4 1.2 1.2 1.2 1.1 0 2.2.2 3.3.2 11.8.4 23.5.8 35.3.8C191.8 144.2 192.3 144.2 192.8 144.2z"/><path fill="#e17476" d="M219.7,129.9c-1.4,0.9-2.8,1.8-4.5,1c-0.2-0.5-0.1-1,0.3-1.4c3.3-5.7,1.7-10.8-2.4-15.3
			c-6.5-7.2-14.9-10.4-24.3-11.1c-4.6-0.4-9.2,0.3-13.5,1.9c-8.6,3.3-11.1,10.9-6.1,18.6c2.9,4.5,7.2,7.4,12,9.5
			c6.3,2.8,12.8,4.3,19.8,3.5c0.8-0.1,1.5-0.3,2.1,0.5c-1.7,1.4-3.6,2.6-5.5,3.5c-9.6,0.1-19-3.2-26.5-9.3c-2.8-2.2-5.1-5-6.6-8.2
			c-3.2-6.6-2-14.3,4.8-19.1c3.6-2.5,7.8-4.1,12.2-4.6c9.8-1.2,19.8,1.1,28.1,6.5c4.1,2.5,7.4,6,9.7,10.1
			C221.6,120.2,221.8,125.4,219.7,129.9z"/><path fill="#030202" d="M195.5,217.4c3.4,0.2,9.6,0.6,15.9,1c1,0.1,2.4,0,2.5,1.5c0.1,1-0.8,1.3-2.8,1.2c-10.3-0.8-20.6-1.3-30.9-1.6
			c-2.4-0.2-4.9-0.1-7.3,0.2c-0.8,0.1-1.4-0.1-1.5-0.9c-0.1-0.6,0.3-1.3,0.9-1.4c0.1,0,0.1,0,0.2,0c0.8-0.1,1.7-0.2,2.5-0.3
			C180.8,216.8,186.7,217,195.5,217.4z"/><path fill="#050404" d="M106.8,218.2c-4.9,0.2-10.8,0-16.7,0.6c-0.8,0.1-1.6,0.2-1.8-0.9s0.6-1.3,1.4-1.6c0.5-0.1,1-0.2,1.5-0.2
			c10.9-0.7,21.8-1.1,32.7-0.9c1,0,2,0.1,3,0.3c0.8,0.2,1.3,0.7,1.2,1.4s-0.7,1.1-1.5,1.1c-0.3,0-0.7,0-1,0
			C119.7,217.9,113.7,218,106.8,218.2z"/><path fill="#040303" d="M266.5 116.3c6.4.6 12.8 1 19.2 1.8.7 0 1.4.2 1.9.5.4.3.6.8.5 1.3-.1.5-.5.9-1.1.9-.6 0-1.2 0-1.8-.1-9.9-1-19.9-1.7-29.8-2h-.3c-.9 0-1.8-.2-1.8-1.3s1-1.2 1.9-1.2c1.1 0 2.2 0 3.3 0L266.5 116.3zM105.3 120.6L117 121c.3 0 .7 0 1 0 1 .1 2.3-.1 2.2 1.4-.1 1.3-1.3 1.3-2.4 1.3-5.4-.2-10.8-.4-16.2-.7-2.9-.1-5.7-.3-8.6-.4-.5 0-1 0-1.5 0-.6 0-1.1-.5-1.2-1.1 0-.6.4-1.2 1.1-1.2.6-.1 1.2-.1 1.8-.1L105.3 120.6 105.3 120.6z"/><path fill="#060404" d="M36.2,123.5h10.6c0.4,0,0.8,0,1.3,0c1,0.1,2,0.1,1.9,1.4c-0.1,1.1-1,1.2-1.9,1.3c-0.3,0-0.7,0-1,0
			c-7.8-0.2-15.5-0.3-23.3-0.8c-0.7,0-1.4-0.1-1.5-1s0.6-1.2,1.4-1.3c0.5-0.1,1-0.1,1.5,0C28.9,123.3,32.6,123.2,36.2,123.5z"/><path fill="#070606" d="M37.5,172.8l9.9-0.5c0.8-0.1,1.5-0.1,2.3,0.1c0.5,0.2,0.8,0.6,0.9,1.1c0,0.5-0.3,1-0.8,1.1
			c-0.5,0.1-1,0.2-1.5,0.3c-7.3,0.4-14.7,0.4-22,0c-0.8,0-1.7-0.1-1.7-1.1s0.7-1.4,1.7-1.4l5.3,0.1h6.1L37.5,172.8z"/><path fill="#040404" d="M229.4,127.9c-1,0.5-2.2,0.8-3.3,0.9l1.2-19.5c0-0.3,0.1-0.7,0.1-1c0.1-0.7,0.7-1.2,1.4-1.2
			c0.7,0,1.3,0.6,1.3,1.3c0,0,0,0,0,0c0,0.7,0,1.4,0,2c0.1,5.3-0.5,10.7-0.7,16C229.4,126.8,229.4,127.4,229.4,127.9z"/><path fill="#050505" d="M225.5,203.5c1.9,3.2,3.8,6.4,3.6,10.4c-0.2,1.7-0.1,3.5,0.3,5.2c0,1.4,0,2.7,0,4.1c0,1-0.4,1.9-1.6,2
			s-1.6-0.9-1.6-1.9c-0.1-2-0.2-4.1-0.3-6.1C225.8,212.7,225.7,208.1,225.5,203.5z"/><path fill="#060808" d="M40.9,217.2h-8.4c-0.4,0-0.8,0-1.3,0c-0.5,0-1-0.5-1-1c-0.1-0.6,0.3-1.2,0.9-1.3c0,0,0,0,0,0
			c0.6-0.1,1.2-0.2,1.8-0.2c5.7-0.1,11.3-0.1,17-0.2c0.3,0,0.7,0,1,0c0.8,0.1,1.6,0.4,1.5,1.3s-0.8,1.3-1.6,1.3
			C47.5,217.1,44.2,217.1,40.9,217.2L40.9,217.2z"/><path fill="#050101" d="M213.5,191c-1.2-0.3-2.5,0.1-3.7-0.3c-0.1-1,0.1-2,0.4-3c1.5-1,3.5-1,5.1-0.1c1.7,0,3.4,0.1,5,0.1
			c1.4-0.1,2.3,0.1,2.2,1.8c0,0.4,0.1,0.8,0.3,1.2L213.5,191z"/><path fill="#060403" d="M278.6,144.2c-1.7-0.5-2.9-1.7-4.3-2.7c-0.6-0.4,0.2-0.4,0.3-0.6h7.1c0.5,0,1-0.1,1.5,0
			c0.8,0,1.5,0.4,1.6,1.3c0.1,0.8-0.5,1.5-1.3,1.7c-0.7,0.2-1.5,0.2-2.3,0.3C280.5,144.2,279.6,144.2,278.6,144.2z"/><path fill="#1e1b17" d="M198,191.2c0-1.2,0.4-2.4,1.1-3.4c0.8-0.8,2-0.8,2.8-0.1c0,0,0,0,0.1,0.1c0,0.6,0,1.1,0,1.7
			c0.1,1.2-0.7,1.4-1.6,1.7L198,191.2z"/><path fill="#160f0a" d="M235.1,190.9c0.1-1.1-0.1-2.4,0.9-3.2c0.3-0.2,0.8-0.2,1.1,0.1c0.4,1,0.5,2.2,0.1,3.2L235.1,190.9z"/><path fill="#020202" d="M280.9,272c0-2.9,0.3-5.9,1-8.7c0.1-0.5,0.3-1,0.4-1.5c0.2-0.6,0.6-1,1.3-0.8c0.5,0.2,0.8,0.7,0.6,1.3
			c0,0.1-0.1,0.2-0.1,0.3c-2.9,12-0.3,23.3,4.3,34.3c3.7,8.8,9.1,16.6,15.2,23.9c0.5,0.6,1,1.2,1.4,1.8c0.3,0.4,0.2,1-0.2,1.4
			c-0.4,0.3-1,0.3-1.4-0.1c-0.3-0.2-0.5-0.4-0.7-0.7c-9.2-10.9-16.7-22.8-20.2-36.8C281.4,281.7,280.8,276.8,280.9,272z"/><path fill="#070606" d="M382,339.7c-4.4-0.2-8.8-1-13-2.6c-1-0.4-2-0.9-2.9-1.5c-0.7-0.4-1.4-0.9-0.8-1.8s1.2-0.4,1.8,0
			c2.8,1.6,5.9,2.6,9.1,3c3.8,0.7,7.7,0.8,11.6,0.3c0.3,0,0.7-0.2,1-0.2c0.5-0.1,1,0.2,1.3,0.6c0.3,0.7-0.3,1.1-0.9,1.3
			C387.1,339.7,385,339.8,382,339.7z"/><path fill="#0a0a0a" d="M275.5,246c-0.1,0.2-0.1,0.5-0.2,0.7c-1.4,2.8-2.5,5.7-3.3,8.8c0,0.2-0.1,0.3-0.2,0.5
			c-0.4,0.7-0.6,1.8-1.7,1.4c-1-0.4-0.5-1.3-0.3-2c0.8-2.9,1.9-5.8,3.1-8.6c0.3-0.5,0.6-1,0.9-1.5c0.2-0.4,0.7-0.5,1.1-0.4
			C275.3,245.2,275.5,245.6,275.5,246z"/><path fill="#100f0f" d="M407.5,208.6c0.3,0,0.6,0.2,0.8,0.4c1.3,1.6,2.5,3.1,3.8,4.7c0.4,0.5,0.6,1,0.1,1.6s-1.1,0.2-1.5-0.2
			c-1.5-1.5-2.8-3.1-3.9-4.9C406.2,209.4,406.6,208.6,407.5,208.6z"/><path fill="#fff" d="M176.1 187.9c-7.8.1-15.6-.2-23.3-.6-1.5-.1-1.6-.1-1.5-2.1.6-8.9.4-17.8.4-26.6 0-3.5-.1-6.9-.1-10.4 0-1.6 0-1.7 1.7-1.6 7.8.2 15.6.4 23.3.7l12.9.4c-3.3 3.6-6.1 7.5-8.4 11.7-.7 1.3-1.1 2.7-1.3 4.1-.5 3 1.6 5.1 4.6 4.7 3.3-.4 6.2-1.8 9.1-3.1 2.5-1.2 5-2.4 7.9-3.9-.3 1.1-.7 2.2-1.4 3.2-3.9 6.6-6.9 13.8-8.7 21.3-.5 1.9-.5 1.9-2.5 2C184.5 187.8 180.3 187.5 176.1 187.9zM203 137c-4.7.7-9.5.5-14.1-.6-6.7-1.6-12.8-4.4-17.8-9.3-2.1-2.1-3.8-4.6-4.7-7.5-1.6-4.6 0-9.6 3.8-12.5 3.5-2.7 7.7-4.4 12.2-4.6 9.7-1.1 19.5 1.6 27.3 7.6 2.7 1.9 4.9 4.5 6.5 7.4 2.4 4.7 2.4 9.3-1 13.5-1.4 1.4-3.2 1.9-4.9 2.6C207.8 134.6 205.4 135.8 203 137zM215.4 187.7l-5.1.1c.6-5.8 2-11.5 4.2-16.9 1.6-4.1 3.6-8 5.4-12 .2-.4.5-.8.8-1.1-.1 4.9-.3 9.8.1 14.7s.9 9.7 1.4 14.6C219.9 187.8 217.5 186.9 215.4 187.7z"/><path fill="#020101" d="M229.9,140.9l-2.3,0.1c-0.6,0-1.1-0.1-1.2-0.7c-0.1-0.5,0.2-1.1,0.8-1.2c0.1,0,0.2,0,0.2,0
			c1-0.1,2-0.2,3-0.2c9.1,0.1,17.5,4.5,22.8,11.8c4.1,5.6,7.3,11.8,9.3,18.5c2.3,7.2,4.2,14.5,7,21.5c0.7,1.6,1.4,3.3,2.1,4.9
			c1,2.3,2.6,4.2,4.7,5.5l0.8,0.6c0.7,0.5,1.6,1,0.9,2s-1.6,0.2-2.2-0.2c-2.6-1.5-4.7-3.7-6-6.4c-2.7-6.1-5-12.4-6.9-18.8
			c-2-6.5-3.7-13.2-7.1-19.2c-1.9-3.5-4.2-6.8-6.8-9.7C243.9,143.7,237.4,141.1,229.9,140.9z"/><path fill="#fff" d="M202 187.8h-2.9c.2-2.4 1.2-4.5 2-6.8 1.5-4.8 3.4-9.5 5.6-14.1.5-.1.7 0 .5.5-1 3.2-1.9 6.5-2.9 9.7C203.3 180.7 202.6 184.3 202 187.8zM237.1 187.7l-1.1-.1c-.8-.9-.1-1.9 0-2.8s.4-2.1.6-3.1c1.5 1.6.5 3.4.5 5.1L237.1 187.7z"/><path fill="#ffd574" d="M237.2 186.8c-.3-1.7.4-3.4-.5-5.1 0-.7.3-1.4.8-2C237.5 182.1 238 184.5 237.2 186.8zM207.2 167.5l-.5-.5 1.3-2.7C208.2 165.5 207.9 166.6 207.2 167.5z"/><path fill="#e8d5b0" d="M382.5,362.1c0-0.1,0.1-0.2,0.1-0.2S382.8,362,382.5,362.1z"/><path fill="#534e31" d="M437.4,325c0.5,0.1,0.9,0.4,1.2,0.8c-0.6,0.4-1.2,0.1-1.7-0.2C436.9,325.3,437.2,325.2,437.4,325z"/><path fill="#8e7449" d="M437.4,325l-0.5,0.6c-0.6,0-1.1-0.2-1.5-0.5c0.4-0.1,0.8-0.1,1.1-0.5L437.4,325z"/><path fill="#896e45" d="M450.6,297.6h0.6c0.4,0.1,0.5,0.6,0.3,0.7C450.9,298.6,450.8,298,450.6,297.6z"/><path fill="#ffd574" d="M418.2,307.5l-0.1,0.9c-0.5-0.2-0.8-0.7-1-1.2c0.2-0.2,0.4-0.2,0.6-0.1L418.2,307.5z"/><path fill="#677147" d="M417.7,307.2l-0.6,0.1c-0.2-0.1-0.4-0.3-0.1-0.4S417.5,306.9,417.7,307.2z"/><path fill="#756e45" d="M450.1,314c0-0.2,0-0.5,0-0.7c0.3,0.3,0.6,0.5,0.3,0.9C450.3,314.3,450.2,314.2,450.1,314z"/><path fill="#fcfde3" d="M359.4,127.8c-0.5-0.4-1-0.8-1.6-1.1c-2.2-0.8-2.6-2.6-2.7-4.6c-0.3-2.4,0.2-4.8,1.3-6.9
			c1.6-2.9,5.3-4,8.3-2.3c1,0.5,1.8,1.4,2.3,2.3c0.5,0.9,0.9,1.8,1.1,2.8c0.8,2.9,0.7,3.2-2,4.7
			C363.8,124.1,361.5,125.8,359.4,127.8z"/><path fill="#fcfce2" d="M346.9,124.7c0,3.7-3,7.5-6.2,7.9c-1.8,0.3-3.6-0.5-4.6-2c-2.8-3.8-0.9-10.3,3.6-11.9c2-0.8,4.4-0.2,5.7,1.6
			C346.4,121.5,346.9,123.1,346.9,124.7z"/><path fill="#f9fae1" d="M357.9,129.6c-0.5,1.1-1.1,2.1-1.5,3.3c-0.3,1-1.3,1.6-2.3,1.3c0,0,0,0-0.1,0c-2.6-0.4-5.2-1.3-8.4-1.2
			c1.2-1.3,2.1-2.7,3-4.3c1.1-2,3.7-2.7,5.7-1.6C355.6,127.6,356.9,128.5,357.9,129.6z"/><path fill="#d6dcc6" d="M351.6,135.9c0.9,0,1.8,0.2,2.6,0.6c-0.6,1.9-0.6,1.9-2.1,1c-0.6-0.3-1.1-0.7-1.6-1.1
			C350.5,135.4,351.1,135.7,351.6,135.9z"/><path fill="#99a796" d="M351.6,135.9c-0.4,0.2-0.9,0.1-1.1,0.5l-1-0.5c-0.1-0.4,0.1-0.7,0.6-0.5
			C350.6,135.4,351.2,135.5,351.6,135.9z"/><path fill="#36584f" d="M350,135.3l-0.6,0.5c-0.4-0.1-0.9-0.4-0.6-0.7S349.7,135,350,135.3z"/><path fill="#fff" d="M109.2,147c6.3,0.1,12.7-0.2,19-0.6c6-0.3,12-0.4,18-0.2c2,0.1,2,0.1,2.1,2.2c0.3,10,0.2,20,0,30
			c-0.1,2.4-0.2,4.9-0.2,7.4c0,1.3-0.5,1.6-1.7,1.5c-1.7-0.1-3.4-0.2-5.1-0.2c-12.7-0.4-25.4,0.3-38,1.1c-5.9,0.4-11.8,0.7-17.7,1.1
			c-4,0.3-8.1,0.6-12.2,1c-2.5,0.2-2.5,0.2-2.6-2.2c-0.5-11.3-0.1-22.5-0.3-33.8c0-1.9-0.1-3.9-0.1-5.8c0-2.2,0-2.2,2-2.1
			C84.7,146.8,97,146.4,109.2,147z"/><path fill="#070505" d="M174.9,174.4h-12.2c-0.4,0-0.9,0-1.3,0c-0.7,0-1.4-0.3-1.5-1.1c-0.1-1,0.6-1.3,1.5-1.4c0.4,0,0.8,0,1.3,0
			c7.9,0.2,15.7,0.2,23.6,0.1c0.7,0,1.3,0,2,0.1c0.8,0.1,1.4,0.6,1.3,1.6s-0.8,1-1.5,1c-3,0-5.9,0.1-8.9,0.1h-4.3L174.9,174.4z"/><path fill="#040303" d="M188.7,119.9l-12.9-0.4c-0.3,0-0.7,0-1,0c-0.6-0.1-1.1-0.5-1.1-1.2c0-0.6,0.5-1.1,1.1-1.2
			c0.6-0.1,1.2-0.1,1.8-0.1c8.2,0.2,16.4,0.4,24.6,0.7c2,0.1,2.9,0.6,2.7,1.5c-0.4,1.5-1.7,1.2-2.7,1.2c-4.1-0.1-8.3-0.3-12.4-0.4
			L188.7,119.9z"/><path fill="#030302" d="M364.1,120.2c0,1.9-1.3,3.6-3.2,4c-1.8,0.3-3.1-0.4-3.8-2.4c-0.4-0.8-0.6-1.6-0.7-2.4
			c-0.2-1.5,0.6-2.9,1.9-3.5c1.3-0.6,2.9-0.4,4,0.6C363.4,117.4,364.1,118.7,364.1,120.2z"/><path fill="#030202" d="M341.6,122.2c2.1,0,3.5,1.7,3.5,4.1c-0.2,2.3-2.1,4-4.3,4c-1.9-0.1-3.4-1.7-3.4-3.6c0,0,0-0.1,0-0.1
			c-0.1-2.3,1.7-4.3,4-4.4C341.4,122.2,341.5,122.2,341.6,122.2z"/><path fill="#1b1815" d="M353.4,130.7c-0.9-0.4-2-0.2-2.6,0.6c-0.3,0.4-0.8,0.5-1.2,0.2c0,0-0.1,0-0.1-0.1c-0.6-0.5-0.4-1-0.1-1.6
			c0.9-1.5,4-2,5.4-0.8c0.3,0.2,0.4,0.5,0.4,0.9c-0.1,0.4-0.4,0.7-0.9,0.8C353.9,130.8,353.7,130.8,353.4,130.7z"/><path fill="#060505" d="M104.6,172.4c-5.3,0.1-10.6-0.2-15.8-0.3c-0.4,0-0.8,0-1.3-0.1c-0.4-0.1-0.7-0.4-0.8-0.9
			c-0.1-0.4,0.1-0.9,0.5-1.1c0.7-0.4,1.4-0.5,2.2-0.4c10.5,0.3,21,0.1,31.5-0.2c1.9,0,2.7,0.4,2.5,1.3c-0.2,1.4-1.4,1.3-2.4,1.3
			C115.5,172.1,110,172.6,104.6,172.4z"/></svg>